<?xml version="1.0" encoding="utf-8"?>
<!-- Generator: Adobe Illustrator 28.1.0, SVG Export Plug-In . SVG Version: 6.00 Build 0)  -->
<svg version="1.1" id="_レイヤー_2" xmlns="http://www.w3.org/2000/svg" xmlns:xlink="http://www.w3.org/1999/xlink" x="0px"
	 y="0px" viewBox="0 0 160 160" style="enable-background:new 0 0 160 160;" xml:space="preserve">
<style type="text/css">
	.st0{fill:#FFFFFF;}
</style>
<circle class="st0" cx="80" cy="80" r="80"/>
<g>
	<path d="M141.7,106.6c-1,2.9-3.1,3.8-6,3.8c-5.4-0.1-10.8,0-16.4,0c-0.2-2.2-0.4-4.3-0.5-6.5c-0.1-2.2-0.4-4.5-1.3-6.6
		c-1.8-4-4.7-6.8-8.8-8.3c-1.3-0.5-2.1-1.1-1.8-2.7c0.2-1.3-0.4-2.5-1.1-3.6c-1.7-3.1-3.2-6.2-4.8-9.3c-0.4-0.8-0.3-1.6,0.1-2.5
		c2.2-4.9,3.7-9.9,3.5-15.3c0-0.2,0-0.3,0-0.5c-0.6-1.9,0.5-2.9,1.9-3.8c8-5.7,19-1.9,22.3,7.7c2,5.7,1.4,11.3-1.2,16.6
		c-1.2,2.6-2.6,5-4.1,7.4c-2.1,3.4-0.7,8.1,2.9,9.6c3.1,1.3,6.3,2.6,9.4,3.8c3.4,1.4,5.4,3.8,5.8,7.5c0,0.2,0.1,0.4,0.2,0.7
		L141.7,106.6L141.7,106.6z"/>
	<path d="M20.3,104.7c0.1-0.7,0.2-1.4,0.4-2.1c0.7-2.8,2.5-4.8,5.2-5.9c3.2-1.3,6.5-2.7,9.7-4c3.9-1.6,5.3-6.2,2.9-9.8
		c-2.8-4.1-5.1-8.5-5.9-13.4c-1.2-7,0.2-13.3,6-18c5.3-4.3,13.7-3.8,18.6,1c0.3,0.3,0.5,0.8,0.5,1.1C57,59.8,58.5,65.4,61,70.9
		c0.4,0.9,0.5,1.6,0.1,2.5c-1.5,3-2.9,6-4.6,8.9c-0.8,1.5-1.5,2.9-1.3,4.5c0.1,1.1-0.3,1.6-1.3,1.9c-5,1.8-8.5,5.3-9.9,10.5
		c-0.6,2.4-0.6,4.9-0.9,7.4c-0.1,1.2-0.2,2.4-0.3,3.8h-1.3c-5,0-10-0.1-15,0c-2.9,0.1-5.1-0.8-6-3.8L20.3,104.7L20.3,104.7z"/>
	<path d="M48,110.2c0.2-3,0.3-6,0.8-8.9c0.6-3.6,2.8-6.1,6.2-7.5c3.8-1.6,7.5-3.1,11.3-4.6c5.3-2,5.6-5.2,5.2-9.2
		c-0.1-1-0.5-2-1.1-2.8c-3.2-5-6.1-10.2-7.2-16.1c-1.4-7.4-0.2-14.3,5.1-20.1c8-8.6,22.8-7.2,28.5,4.6c3.2,6.6,3.2,13.4,0.6,20.2
		c-1.5,4-3.5,7.8-6,11.4c-2.6,3.8-0.9,9.8,3.4,11.6c4,1.6,8,3.2,11.9,4.8c4.2,1.7,6.4,4.8,6.6,9.3c0.1,2.4,0.4,4.7,0.6,7.2H48z"/>
</g>
</svg>
