<?xml version="1.0" encoding="utf-8"?>
<!-- Generator: Adobe Illustrator 28.1.0, SVG Export Plug-In . SVG Version: 6.00 Build 0)  -->
<svg version="1.1" id="_レイヤー_2" xmlns="http://www.w3.org/2000/svg" xmlns:xlink="http://www.w3.org/1999/xlink" x="0px"
	 y="0px" viewBox="0 0 160 160" style="enable-background:new 0 0 160 160;" xml:space="preserve">
<style type="text/css">
	.st0{fill:#FFFFFF;}
</style>
<circle class="st0" cx="80" cy="80" r="80"/>
<g>
	<path d="M64,62h-8.2c0.7-1.5,1.4-2.9,2.1-4.2c0.2-0.3,0.9-0.5,1.4-0.5c3.6,0,7.2,0,10.8,0c0.9,0,1.9-0.2,2.7-0.6
		c6-3,12.1-3.2,18.4-1.3c3.7,1.1,7.5,2.2,11.4,2.2c0.5,0,1.1,0.7,1.4,1.2c3.8,7.9,7.5,16,11.5,23.8c1.4,2.8,1.9,5.3,0.1,8
		c-0.3,0.4-0.1,1.3,0.2,1.8c1.2,1.9,2,3.8,1.6,6.1c-0.7,3.4-2.6,5.3-6,5.8c-1.2,0.2-1.8,0.5-1.8,1.9c-0.2,3.3-2.4,5.4-5.8,5.6
		c-1.5,0.1-2.3,0.5-2.9,2.1c-1.5,3.9-4.9,5.1-8.7,3.5c-0.7-0.3-1.3-0.6-2-1c-0.3,0.5-0.7,0.9-1,1.3c-2.4,3.1-5.5,3.7-8.9,1.8
		c-0.4-0.2-0.9-0.5-1.3-0.8c-0.7-0.6-1.3-0.6-1.8,0.2c-1,1.6-2.5,1.8-4.2,1.3c-1.8-0.6-3.3-2.4-3.4-4.1c0-0.3,0-0.7,0-1.3
		c-1.8,2.2-4,2.5-6.2,1.2c-2.3-1.3-3.5-3.3-2.9-6.2c-2.6,1.6-4.8,1-6.8-0.6c-1.7-1.4-2.3-3.4-1.7-5.9c-1.6,1.1-3.3,1.4-5.1,0.8
		c-3.5-1.1-5.3-5.7-2.5-8.7c1-1,2.4-2.2,2.5-3.4c0.1-1-1.3-2.3-2.3-3.2c-1.2-1.2-1.5-2.3-0.4-3.7c0.4-0.5,0.6-1.1,1-1.8
		c1.6,1.9,3.2,3.7,4.8,5.6c2.6-1.6,5-1.1,7.1,0.9c1.8,1.8,2,4,0.7,6.5c2.4-0.9,4.4-0.6,6.2,1c1.7,1.5,2.6,3.4,1.7,6
		c2.3-1.3,4.3-1,6.1,0.4c1.9,1.5,2.7,3.3,2,5.8c3.7-1.5,7.8,2,6.5,5.8c2,1.6,4,1.8,5.4,0.7c1.2-1,1.2-1.8-0.1-2.8
		c-2.6-2-5.2-3.9-7.8-5.9c-0.9-0.7-1.4-1.5-0.6-2.5c0.8-1.1,1.7-1,2.7-0.3c4.3,3.1,8.6,6.1,13,9.1c1.6,1.1,3.1,0.9,4.2-0.4
		c1.2-1.5,1.1-3.2-0.5-4.4c-4.6-3.4-9.3-6.7-13.9-10.1c-0.4-0.3-1-0.7-1-1.2c-0.1-0.7,0.1-1.8,0.5-1.9c0.8-0.2,1.9-0.3,2.6,0.1
		c2.3,1.4,4.5,3.1,6.7,4.7c2.8,2,5.5,4,8.3,6c0.7,0.5,1.4,1,2.1,1.4c1.5,0.8,3.1,0.4,3.9-0.9c1-1.5,0.7-3.1-0.8-4.2
		c-5.8-4.2-11.6-8.3-17.4-12.5c-0.6-0.4-1.3-0.8-1.6-1.5c-0.3-0.6-0.3-1.6,0-2.1c0.3-0.4,1.3-0.5,1.9-0.5c0.5,0,1.1,0.4,1.6,0.8
		c6.1,4.4,12.2,8.7,18.3,13.1c1.8,1.3,4.2,0.9,5.5-0.8c1.3-1.7,1-3.6-0.8-5.2c-8.8-7.6-17.5-15.2-26.2-22.9
		c-1.4-1.2-2.5-2.6-4.5-2.9c-3.4-0.6-6.2,1.2-6.8,4.6c-1.1,6-7.1,10.3-12.4,9c-2.6-0.7-3.4-2.5-2.6-5c0.7-2.2,1.3-4.4,1.6-6.7
		c0.3-2.3,0.5-4.5,1.9-6.4C63.4,63.3,63.6,62.8,64,62L64,62z"/>
	<path d="M132.6,81.3c-0.5,0.6-0.8,1.3-1.4,1.7c-2.3,1.2-4.7,2.3-7.1,3.3c-1.3,0.6-2.2,0.1-2.9-1.4c-2.9-6-5.8-12.1-8.7-18.1
		c-2.1-4.4-4.2-8.7-6.2-13.1c-0.9-2-0.6-3,1.4-3.9c1.9-0.9,3.8-1.8,5.7-2.7c1.8-0.8,2.8-0.4,3.6,1.3c5,10.4,9.9,20.8,14.9,31.2
		C132.2,80.1,132.3,80.6,132.6,81.3L132.6,81.3z"/>
	<path d="M54.8,51.9c-0.3,0.8-0.5,1.4-0.8,2c-4.9,10.2-9.8,20.5-14.6,30.7c-1,2-1.9,2.4-4,1.5c-1.9-0.9-3.8-1.8-5.7-2.7
		c-1.8-0.9-2.1-1.8-1.2-3.6c5-10.5,10-20.9,15-31.4c0.7-1.5,1.9-2,3.4-1.3c2.2,1,4.3,2,6.4,3.1C53.9,50.5,54.3,51.4,54.8,51.9z"/>
</g>
</svg>
