<?xml version="1.0" encoding="utf-8"?>
<!-- Generator: Adobe Illustrator 28.1.0, SVG Export Plug-In . SVG Version: 6.00 Build 0)  -->
<svg version="1.1" id="_レイヤー_2" xmlns="http://www.w3.org/2000/svg" xmlns:xlink="http://www.w3.org/1999/xlink" x="0px"
	 y="0px" viewBox="0 0 160 160" style="enable-background:new 0 0 160 160;" xml:space="preserve">
<style type="text/css">
	.st0{fill:#FFFFFF;}
</style>
<circle class="st0" cx="80" cy="80" r="80"/>
<g>
	<path d="M45.5,88.3c1.8,2.8,3.5,5.5,5.2,8.1c0.8,1.2,1.4,2.5,0,3.5c-1.6,1.1-2.6,0-3.4-1.3c-2.3-3.6-4.6-7.2-7-10.9
		c-3.5,2.2-6.9,4.3-10.5,6.6c4.7,7.2,9.2,14.4,14,21.8c3.5-2.2,6.9-4.4,10.5-6.6c-0.9-1.4-1.7-2.7-2.5-3.9c-0.8-1.2-1.4-2.5,0.2-3.5
		c1.5-1,2.5,0,3.3,1.2c0.2,0.2,0.4,0.5,0.7,0.9c4.4-3.3,9-2.6,13.7-1c5.6,1.9,11.3,3.5,16.9,5.3c2.8,0.9,5.2,0.6,7.6-1
		c8.8-5.8,17.6-11.4,26.3-17.2c2.1-1.4,2.7-3.4,1.5-5.2c-1.2-2-3.3-2.4-5.5-1.1c-3.2,1.9-6.3,4-9.4,6c-1.2,0.8-2.5,1.3-3.5-0.2
		c-1.1-1.5,0-2.5,1.2-3.2c3.2-2.1,6.5-4.2,9.8-6.2c3.9-2.3,8.5-1.2,10.8,2.4c2.4,3.8,1.3,8.3-2.6,10.9c-8.8,5.7-17.6,11.4-26.3,17.2
		c-3.6,2.4-7.3,2.7-11.3,1.5c-6.5-2.1-13.1-4.1-19.6-6.1c-2.7-0.9-5.1-0.4-7.3,1.3c0.9,2.3,0.2,4.1-1.8,5.4
		c-3.7,2.3-7.5,4.7-11.2,7.1c-2.2,1.4-2.9,1.2-4.4-1c-5-7.7-9.9-15.4-14.9-23c-1.6-2.5-1.5-3.1,1-4.7c3.8-2.4,7.6-4.7,11.4-7.2
		c1.9-1.3,3.6-1.7,4.9,0.8c3.9-2.5,7.7-4.9,11.4-7.4c3.1-2,6.4-2.5,9.9-1.5c10,3,20.1,6,30.1,9.1c4.3,1.3,6.6,5.4,5.4,9.6
		c-1.1,4.2-5.3,6.6-9.6,5.4c-5.4-1.5-10.7-3.2-16-5c-0.8-0.3-1.8-1.7-1.7-2.5c0.1-1.6,1.6-1.7,2.9-1.3c5.1,1.5,10.1,3.1,15.1,4.6
		c2.7,0.8,4.7-0.1,5.4-2.3c0.7-2.1-0.6-4-3.3-4.8c-9.7-3-19.4-5.9-29.2-8.9c-2.5-0.8-4.8-0.4-7,1C53.1,83.3,49.4,85.7,45.5,88.3
		L45.5,88.3z"/>
	<path d="M95.9,58.6c-9.5,0-18.9,0-28.4,0c-3,0-3.3-0.6-2.3-3.4c1.7-4.4,3.5-8.8,5.1-13.2c0.8-2.2,2.2-3,4.5-3c14.1,0,28.2,0,42.3,0
		c2.4,0,3.8,1,4.6,3.2c1.6,4.4,3.4,8.8,5.1,13.2c0.9,2.5,0.5,3.2-2.2,3.2C115.1,58.7,105.4,58.6,95.9,58.6L95.9,58.6L95.9,58.6z
		 M102.8,41c3,1.9,6.3,3.4,6.3,7.6c0,4.1-3.5,5.5-7,7.4c3,0,5.3,0,7.5,0s4.7,0,6.3,0c0.8-1.6,1.1-3,1.9-3.5c0.9-0.6,2.3-0.6,3.8-0.9
		c-0.8-2.2-1.4-4.4-2.3-6.5c-0.3-0.6-1.4-1-2.2-1.3c-1.1-0.4-2.8-0.4-3.2-1.1c-1.2-2.2-3.1-1.8-4.8-1.8C107,41,104.9,41,102.8,41
		L102.8,41z M89.2,55.8c-3.1-1.8-6.3-3.4-6.3-7.4c0-4.1,3.5-5.5,7.2-7.5c-3.7,0-6.7,0-9.7,0c-0.5,0-1.2,0.2-1.4,0.6
		c-0.9,1.9-2.6,2.1-4.3,2.3c-0.7,0.1-1.6,0.5-1.8,1c-0.9,2.2-1.6,4.5-2.5,6.8c4.7,0.5,5.2,0.9,5.1,4.2L89.2,55.8L89.2,55.8z
		 M99.6,46c0.9-0.6,1.9-1.3,2.8-1.9c-0.2-0.3-0.4-0.6-0.6-0.9c-0.9,0.4-2,0.7-2.8,1.2c-3.1,2.2-3.1,2.3-6.2-0.1
		c-0.4-0.3-0.7-0.7-1.2-0.8c-0.6-0.1-1.3,0-2.5,0.1c1.3,1.2,2,1.9,2.8,2.6c-0.5,0.4-0.8,0.7-1.6,1.4c1.7,0.2,2.8,0.3,4,0.4
		c0,0.1,0,0.2,0,0.3c-1.2,0.2-2.5,0.4-3.7,0.7c0,0.2,0,0.5,0.1,0.7c1.2,0.1,2.4,0.2,3.6,0.3c0.4,1,1,2.1,1.7,2.1
		c0.6,0,1.3-1.1,2.2-2.1c0.6-0.1,1.8-0.3,3-0.5c0-0.2,0-0.4-0.1-0.7c-1.2-0.2-2.3-0.3-3.5-0.5c0-0.1,0.1-0.3,0.1-0.4
		c1.1-0.1,2.2-0.2,3.9-0.4C100.8,47,100.4,46.7,99.6,46L99.6,46z"/>
	<path d="M95.9,61.2c9.3,0,18.6,0,27.9,0c0.7,0,1.5-0.2,2.1,0.1c0.6,0.2,1.5,0.9,1.5,1.4c0,0.5-0.7,1.3-1.3,1.6
		c-0.5,0.3-1.2,0.1-1.8,0.1c-18.8,0-37.5,0-56.2,0c-0.4,0-0.9,0.1-1.2,0c-0.8-0.5-1.5-1.2-2.3-1.8c0.8-0.5,1.5-1.3,2.3-1.4
		c8.7-0.1,17.3-0.1,26-0.1C93.9,61.2,94.9,61.2,95.9,61.2L95.9,61.2z"/>
	<path d="M96.2,66.8c9.2,0,18.4,0,27.7,0c0.7,0,1.5-0.2,2.1,0.1c0.6,0.3,1.4,1,1.4,1.5c0,0.5-0.8,1.3-1.4,1.6
		c-0.6,0.3-1.4,0.1-2.1,0.1c-18.8,0-37.5,0-56.2,0c-0.6,0-1.4,0.1-1.8-0.2c-0.6-0.4-1.1-1.1-1.2-1.7c0-0.4,0.8-1.1,1.3-1.3
		c0.6-0.2,1.4-0.1,2.1-0.1C77.4,66.8,86.8,66.8,96.2,66.8L96.2,66.8L96.2,66.8z"/>
</g>
</svg>
