<?xml version="1.0" encoding="utf-8"?>
<!-- Generator: Adobe Illustrator 28.1.0, SVG Export Plug-In . SVG Version: 6.00 Build 0)  -->
<svg version="1.1" id="_レイヤー_2" xmlns="http://www.w3.org/2000/svg" xmlns:xlink="http://www.w3.org/1999/xlink" x="0px"
	 y="0px" viewBox="0 0 120 120" style="enable-background:new 0 0 120 120;" xml:space="preserve">
<style type="text/css">
	.st0{fill:#FFFFFF;}
	.st1{fill:#0068B4;}
</style>
<circle class="st0" cx="60" cy="60" r="60"/>
<path class="st1" d="M36.1,72.4c0-8.9,0-17.9,0-26.8c0.1-0.1,0.2-0.3,0.2-0.4c0.8-3.6,3.2-5.7,6.8-5.7c11.9,0,23.8,0,35.8,0
	c3.3,0,5.9,2,6.7,5c0.1,0.4,0.2,0.8,0.3,1.2v26.8c-0.1,0.1-0.2,0.3-0.2,0.4c-0.8,3.6-3.2,5.7-6.9,5.7c-11.9,0-23.9,0-35.9,0
	c-3.2,0-5.7-2-6.5-4.8C36.3,73.2,36.2,72.8,36.1,72.4L36.1,72.4z M40.3,44.3c0.1,0.2,0.2,0.2,0.3,0.3C46.7,50,52.9,55.3,59,60.7
	c1.3,1.2,2.6,1.1,4,0c2.7-2.3,5.3-4.6,7.9-6.9c3.6-3.1,7.2-6.2,10.8-9.4c-0.7-1-1.6-1.4-2.7-1.4c-12,0-24,0-36,0
	C41.9,42.9,41,43.3,40.3,44.3L40.3,44.3z M66.3,61.9c-3.6,3.6-7.1,3.5-10.5,0c-4.9,4.2-9.6,8.4-14.6,12.8c0.9,0.2,1.4,0.4,1.9,0.4
	c12,0,24,0,36,0c0.5,0,1.1-0.2,1.9-0.4C75.9,70.3,71.1,66.1,66.3,61.9L66.3,61.9z M39.7,71.8c4.7-4.1,9.2-8,13.7-12
	c-4.6-4-9.1-7.9-13.7-12V71.8z M82.3,71.8V47.9c-4.6,4-9.1,8-13.7,12C73.2,63.9,77.7,67.8,82.3,71.8L82.3,71.8z"/>
</svg>
