<?xml version="1.0" encoding="utf-8"?>
<!-- Generator: Adobe Illustrator 28.1.0, SVG Export Plug-In . SVG Version: 6.00 Build 0)  -->
<svg version="1.1" id="_レイヤー_2" xmlns="http://www.w3.org/2000/svg" xmlns:xlink="http://www.w3.org/1999/xlink" x="0px"
	 y="0px" viewBox="0 0 120 120" style="enable-background:new 0 0 120 120;" xml:space="preserve">
<style type="text/css">
	.st0{display:none;fill:none;}
	.st1{fill:#0068B4;}
</style>
<circle class="st0" cx="60" cy="60" r="60"/>
<path class="st1" d="M7.8,88c0-18.7,0-37.5,0-56.2C8,31.6,8.2,31.2,8.2,31c1.7-7.5,6.7-12,14.3-12c25,0,49.9,0,75.1,0
	c6.9,0,12.4,4.2,14.1,10.5c0.2,0.8,0.4,1.7,0.6,2.5v56.2c-0.2,0.2-0.4,0.6-0.4,0.8c-1.7,7.5-6.7,12-14.5,12c-25,0-50.1,0-75.3,0
	c-6.7,0-12-4.2-13.6-10.1C8.2,89.7,8,88.8,7.8,88L7.8,88z M16.6,29.1c0.2,0.4,0.4,0.4,0.6,0.6C30,41,43,52.1,55.8,63.5
	c2.7,2.5,5.5,2.3,8.4,0c5.7-4.8,11.1-9.6,16.6-14.5c7.5-6.5,15.1-13,22.6-19.7c-1.5-2.1-3.4-2.9-5.7-2.9c-25.2,0-50.3,0-75.5,0
	C19.9,26.1,18.1,27,16.6,29.1L16.6,29.1z M71.1,66c-7.5,7.5-14.9,7.3-22,0C38.8,74.8,29,83.6,18.5,92.8c1.9,0.4,2.9,0.8,4,0.8
	c25.2,0,50.3,0,75.5,0c1,0,2.3-0.4,4-0.8C91.2,83.6,81.2,74.8,71.1,66L71.1,66z M15.3,86.7c9.9-8.6,19.3-16.8,28.7-25.2
	C34.4,53.2,25,45,15.3,36.4V86.7z M104.7,86.7V36.6C95,45,85.6,53.4,75.9,61.8C85.6,70.2,95,78.4,104.7,86.7L104.7,86.7z"/>
</svg>
