<?xml version="1.0" encoding="utf-8"?>
<!-- Generator: Adobe Illustrator 28.1.0, SVG Export Plug-In . SVG Version: 6.00 Build 0)  -->
<svg version="1.1" id="_レイヤー_2" xmlns="http://www.w3.org/2000/svg" xmlns:xlink="http://www.w3.org/1999/xlink" x="0px"
	 y="0px" viewBox="0 0 120 120" style="enable-background:new 0 0 120 120;" xml:space="preserve">
<style type="text/css">
	.st0{fill:#FFFFFF;}
	.st1{fill:#0068B4;}
</style>
<circle class="st0" cx="60" cy="60" r="60"/>
<g>
	<path class="st1" d="M49.5,54.2c2.5,4.5,5.7,8.2,9.5,11.3c1.6,1.2,3.3,2.3,4.9,3.5c0.4,0.3,0.7,0.3,1.1-0.1
		c0.7-0.8,1.4-1.5,2.2-2.2c1.6-1.5,3.6-1.8,5.4-0.7c2.3,1.5,4.5,3,6.6,4.6c2,1.5,2,3.3,0.3,5.2c-2.4,2.6-5.2,4.1-8.8,3.9
		c-2.1-0.1-4-0.7-5.9-1.6c-10.7-5.4-18.8-13.5-24.2-24.2c-1.5-2.9-2.1-6-1.3-9.2c0.7-2.6,2.4-4.5,4.4-6.1c1.2-0.9,2.8-0.9,3.8,0.4
		c2,2.5,3.8,5.2,5.5,7.9c1,1.6,0.4,3.4-0.9,4.7C51.4,52.5,50.4,53.3,49.5,54.2L49.5,54.2z"/>
	<path class="st1" d="M64.3,39.2C75,39.3,82.4,50,78.5,59.9c-0.2,0.5-0.7,1.1-1.2,1.3C77,61.3,76.2,61,76,60.7
		c-0.3-0.4-0.4-1.2-0.2-1.7c0.9-2.6,1.1-5.1,0.4-7.8c-1.8-6.6-8.6-10.5-15.2-8.6c-1.5,0.4-2.3,0.2-2.5-0.7c-0.3-1,0.2-1.7,1.8-2
		C61.6,39.6,63,39.4,64.3,39.2L64.3,39.2z"/>
	<path class="st1" d="M74.1,54.9c-0.3,1.2-0.5,2.4-0.8,3.6c-0.3,1-1.1,1.4-1.9,1.1c-0.8-0.3-1.1-1.1-0.8-2.1
		c1.6-4.7-1.2-9.2-6.1-9.6c-0.8-0.1-1.7,0.1-2.6,0.3c-1.1,0.2-1.8,0-2-0.9c-0.3-0.9,0.2-1.6,1.3-1.9C67.4,43.3,73.9,48.2,74.1,54.9
		L74.1,54.9z"/>
</g>
</svg>
