<?xml version="1.0" encoding="utf-8"?>
<!-- Generator: Adobe Illustrator 28.1.0, SVG Export Plug-In . SVG Version: 6.00 Build 0)  -->
<svg version="1.1" id="_レイヤー_2" xmlns="http://www.w3.org/2000/svg" xmlns:xlink="http://www.w3.org/1999/xlink" x="0px"
	 y="0px" viewBox="0 0 120 120" style="enable-background:new 0 0 120 120;" xml:space="preserve">
<style type="text/css">
	.st0{display:none;fill:#FFFFFF;}
	.st1{fill:#0068B4;}
</style>
<circle class="st0" cx="60" cy="60" r="60"/>
<g>
	<path class="st1" d="M38.7,52.5c5.1,9.3,11.7,16.9,19.5,23.2c3.3,2.5,6.8,4.7,10.1,7.2c0.8,0.6,1.4,0.6,2.3-0.2
		c1.4-1.6,2.9-3.1,4.5-4.5c3.3-3.1,7.4-3.7,11.1-1.4c4.7,3.1,9.3,6.2,13.6,9.5c4.1,3.1,4.1,6.8,0.6,10.7c-4.9,5.3-10.7,8.4-18.1,8
		c-4.3-0.2-8.2-1.4-12.1-3.3c-22-11.1-38.7-27.8-49.8-49.8c-3.1-6-4.3-12.3-2.7-18.9c1.4-5.3,4.9-9.3,9-12.5
		c2.5-1.9,5.8-1.9,7.8,0.8c4.1,5.1,7.8,10.7,11.3,16.2c2.1,3.3,0.8,7-1.9,9.7C42.6,49,40.6,50.7,38.7,52.5L38.7,52.5z"/>
	<path class="st1" d="M69.2,21.7c22,0.2,37.2,22.2,29.2,42.6c-0.4,1-1.4,2.3-2.5,2.7c-0.6,0.2-2.3-0.4-2.7-1
		c-0.6-0.8-0.8-2.5-0.4-3.5c1.9-5.3,2.3-10.5,0.8-16c-3.7-13.6-17.7-21.6-31.3-17.7c-3.1,0.8-4.7,0.4-5.1-1.4
		c-0.6-2.1,0.4-3.5,3.7-4.1C63.6,22.5,66.5,22.1,69.2,21.7L69.2,21.7z"/>
	<path class="st1" d="M89.3,54c-0.6,2.5-1,4.9-1.6,7.4c-0.6,2.1-2.3,2.9-3.9,2.3c-1.6-0.6-2.3-2.3-1.6-4.3
		c3.3-9.7-2.5-18.9-12.5-19.7c-1.6-0.2-3.5,0.2-5.3,0.6c-2.3,0.4-3.7,0-4.1-1.9c-0.6-1.9,0.4-3.3,2.7-3.9
		C75.5,30.1,88.9,40.2,89.3,54L89.3,54z"/>
</g>
</svg>
