<?xml version="1.0" encoding="utf-8"?>
<!-- Generator: Adobe Illustrator 28.1.0, SVG Export Plug-In . SVG Version: 6.00 Build 0)  -->
<svg version="1.1" id="_レイヤー_2" xmlns="http://www.w3.org/2000/svg" xmlns:xlink="http://www.w3.org/1999/xlink" x="0px"
	 y="0px" viewBox="0 0 120 120" style="enable-background:new 0 0 120 120;" xml:space="preserve">
<style type="text/css">
	.st0{fill:#FFFFFF;}
	.st1{fill:#0068B4;}
</style>
<circle class="st0" cx="60" cy="60" r="60"/>
<g>
	<path class="st1" d="M94.6,60.6v2.7c-0.1,0.2-0.2,0.3-0.2,0.5C93.7,69,91.2,73,86.9,76c-0.4,0.3-0.7,0.9-0.7,1.4
		c-0.1,1.6,0,3.2,0,5.2c-9-1.7-17.3-4.2-23.2-11.5c-7.5,5.3-15.7,8.6-25,9.8c0-2.2-0.1-4.1,0-6c0-1.1-0.3-1.8-1.2-2.4
		c-4.4-3-7.2-7.1-8.5-12.2c-0.3-1.2-0.5-2.4-0.8-3.6c0-1.1,0-2.2,0-3.3c0.1-0.7,0.2-1.5,0.4-2.2c1.8-8.5,6.8-14.4,15.1-16.8
		c8.3-2.4,15.8-0.3,21.7,6.1c1.7,1.8,2.9,4.1,4.4,6.3c0.2-0.1,0.5-0.2,0.9-0.4c10.2-4.8,21.7,0.7,24.2,11.7
		C94.3,58.9,94.4,59.7,94.6,60.6L94.6,60.6z M42.2,75.7c4.8-0.7,13-4.3,16.9-7.2c5.6-4.2,8.1-11.6,6.2-18.3
		c-2-6.9-8.1-11.8-15.1-12.3c-7.5-0.6-14.4,3.8-17.2,10.9c-2.7,7-0.6,14.9,5.4,19.6c1.2,0.9,3.1,1.4,3.7,2.6
		C42.7,72.2,42.2,74,42.2,75.7L42.2,75.7z M71.1,64.5c3.6,5.2,10.9,4,12.9,0H71.1z M73.3,57.5c-0.7,0.9-1.4,1.5-1.3,2
		c0.1,0.5,0.8,1.2,1.3,1.3c0.9,0.2,1.6-0.5,1.4-1.4C74.7,58.9,74,58.4,73.3,57.5z M81.9,61.1c0.2,0,0.4,0,0.7,0
		c0.3-0.6,1-1.2,0.9-1.7c-0.1-0.5-0.9-0.9-1.4-1.4c-0.4,0.5-1.2,0.9-1.3,1.5C80.8,60.1,81.5,60.6,81.9,61.1L81.9,61.1z"/>
	<path class="st1" d="M40.4,59.8h17c-1.9,2.6-4.3,3.9-7.2,4.3C46.3,64.6,42.6,62.9,40.4,59.8z"/>
	<path class="st1" d="M41.4,53.6c0.1-1.6,0.8-2.3,1.8-2.2c1,0,1.7,0.7,1.7,1.7c0,1.1-0.7,1.9-1.8,1.7C42.4,54.7,41.8,53.9,41.4,53.6
		z"/>
	<path class="st1" d="M56.7,53.6c-0.5,0.3-1.1,1.1-1.8,1.2c-1.1,0.2-1.8-0.7-1.7-1.7c0-1,0.7-1.7,1.7-1.7
		C56,51.4,56.5,52.1,56.7,53.6z"/>
</g>
</svg>
