<?xml version="1.0" encoding="utf-8"?>
<!-- Generator: Adobe Illustrator 28.1.0, SVG Export Plug-In . SVG Version: 6.00 Build 0)  -->
<svg version="1.1" id="_レイヤー_2" xmlns="http://www.w3.org/2000/svg" xmlns:xlink="http://www.w3.org/1999/xlink" x="0px"
	 y="0px" viewBox="0 0 120 120" style="enable-background:new 0 0 120 120;" xml:space="preserve">
<style type="text/css">
	.st0{display:none;fill:#FFFFFF;}
	.st1{fill:#0068B4;}
</style>
<circle class="st0" cx="60" cy="60" r="60"/>
<g>
	<path class="st1" d="M115,64.2v4.4c-0.2,0.3-0.3,0.5-0.3,0.8c-1.1,8.5-5.2,15.1-12.3,20c-0.7,0.5-1.1,1.5-1.1,2.3
		c-0.2,2.6,0,5.2,0,8.5c-14.7-2.8-28.3-6.9-38-18.8c-12.3,8.7-25.7,14.1-41,16.1c0-3.6-0.2-6.7,0-9.8c0-1.8-0.5-2.9-2-3.9
		c-7.2-4.9-11.8-11.6-13.9-20c-0.5-2-0.8-3.9-1.3-5.9c0-1.8,0-3.6,0-5.4c0.2-1.1,0.3-2.5,0.7-3.6c2.9-13.9,11.1-23.6,24.7-27.5
		s25.9-0.5,35.6,10c2.8,2.9,4.8,6.7,7.2,10.3c0.3-0.2,0.8-0.3,1.5-0.7c16.7-7.9,35.6,1.1,39.7,19.2C114.5,61.4,114.7,62.8,115,64.2
		L115,64.2z M29.1,89c7.9-1.1,21.3-7,27.7-11.8c9.2-6.9,13.3-19,10.2-30C63.7,35.9,53.7,27.9,42.2,27C29.9,26,18.6,33.3,14,44.9
		c-4.4,11.5-1,24.4,8.8,32.1c2,1.5,5.1,2.3,6.1,4.3C29.9,83.2,29.1,86.2,29.1,89L29.1,89z M76.5,70.6c5.9,8.5,17.9,6.6,21.1,0H76.5z
		 M80.1,59.2c-1.1,1.5-2.3,2.5-2.1,3.3c0.2,0.8,1.3,2,2.1,2.1c1.5,0.3,2.6-0.8,2.3-2.3C82.4,61.4,81.2,60.6,80.1,59.2z M94.2,65.1
		c0.3,0,0.7,0,1.1,0c0.5-1,1.6-2,1.5-2.8c-0.2-0.8-1.5-1.5-2.3-2.3c-0.7,0.8-2,1.5-2.1,2.5C92.4,63.4,93.5,64.2,94.2,65.1L94.2,65.1
		z"/>
	<path class="st1" d="M26.2,62.9H54c-3.1,4.3-7,6.4-11.8,7C35.8,70.8,29.8,68,26.2,62.9z"/>
	<path class="st1" d="M27.8,52.8c0.2-2.6,1.3-3.8,2.9-3.6c1.6,0,2.8,1.1,2.8,2.8c0,1.8-1.1,3.1-2.9,2.8
		C29.4,54.6,28.5,53.3,27.8,52.8z"/>
	<path class="st1" d="M52.9,52.8c-0.8,0.5-1.8,1.8-2.9,2c-1.8,0.3-2.9-1.1-2.8-2.8c0-1.6,1.1-2.8,2.8-2.8
		C51.7,49.2,52.5,50.3,52.9,52.8z"/>
</g>
</svg>
