<?xml version="1.0" encoding="utf-8"?>
<!-- Generator: Adobe Illustrator 28.1.0, SVG Export Plug-In . SVG Version: 6.00 Build 0)  -->
<svg version="1.1" id="_レイヤー_2" xmlns="http://www.w3.org/2000/svg" xmlns:xlink="http://www.w3.org/1999/xlink" x="0px"
	 y="0px" viewBox="0 0 120 120" style="enable-background:new 0 0 120 120;" xml:space="preserve">
<style type="text/css">
	.st0{fill:#FFFFFF;}
	.st1{fill:#0068B4;}
</style>
<g id="contents">
	<g>
		<circle class="st0" cx="60" cy="60" r="60"/>
		<g>
			<path class="st1" d="M41.6,77.4V35.6h33.1c0.8,0.6,1.1,1.4,1,2.4c-0.1,1.1-0.1,2.2,0,3.3c0,0.5,0.3,1.1,0.6,1.5
				c1.1,1.2,2.3,2.4,3.5,3.5c1.1,1,1.6,2.2,1.6,3.8c-0.1,2.3,0,4.5,0,6.8c0,0.4,0.1,0.7,0.1,1.4c0.7-0.7,1.3-1.2,1.8-1.7
				c2.2-1.9,5.5-1.1,6.6,1.6c0.1,0.2,0.2,0.5,0.4,0.7v1.5c-0.7,1.8-2.2,3-3.5,4.4c-1.5,1.5-2.9,3-4.4,4.4c-0.7,0.6-1,1.3-1,2.3
				c0.1,3.5,0,7.1,0,10.6c0,1-0.2,1.7-1.1,2.1H48.5c-0.8-0.4-1.1-1.1-1-2c0.1-0.9,0-1.9,0-2.8c0-0.9-0.3-1.2-1.1-1.1
				c-0.8,0.1-1.6-0.1-2.4,0C43,78.6,42.2,78.3,41.6,77.4L41.6,77.4z M70.3,44.3c-0.3-0.1-0.3-0.1-0.4-0.1c-6.3,0-12.7,0-19.1,0
				c-0.8,0-0.8,0.5-0.8,1c0,11.8,0,23.5,0,35.3c0,0.9,0.3,1.1,1.1,1.1c8.9,0,17.8,0,26.8,0c0.9,0,1.1-0.3,1.1-1.1c0-2.1,0-4.3,0-6.4
				c0-0.3-0.1-0.6-0.2-1.2c-1.2,1.3-2.2,2.4-3.3,3.4c-0.5,0.4-1.1,0.8-1.7,1c-1.5,0.4-3,0.8-4.5,1.1c-1.2,0.3-2-0.6-1.7-1.7
				c0.3-1.3,0.7-2.6,0.9-3.9c0.2-1.1,0.7-1.9,1.5-2.7c2.8-2.7,5.5-5.5,8.2-8.2c0.6-0.6,0.8-1.2,0.8-2c-0.1-2-0.1-4,0-6.1
				c0-0.9-0.3-1.1-1.1-1.1c-1.8,0-3.7,0-5.5,0c-1.7,0-2-0.3-2-2C70.3,48.6,70.3,46.5,70.3,44.3L70.3,44.3z M44.4,38.4
				c0,0.5,0,0.9,0,1.3c0,3.5,0,7,0,10.5c0,8.2,0,16.3,0,24.5c0,0.4,0.1,1.1,0.2,1.1c0.8,0.1,1.7,0.2,2.5,0c0.2,0,0.4-0.9,0.4-1.4
				c0-10.2,0-20.5,0-30.7c0-1.8,0.3-2.1,2.2-2.1c7.4,0,14.7,0,22.1,0c0.4,0,0.8,0,1.3,0v-3.1L44.4,38.4L44.4,38.4z M84,63.8
				c-0.6-0.7-1.3-1.4-1.7-1.9c-2.8,2.8-5.5,5.5-8.1,8c0.6,0.6,1.2,1.3,1.7,1.8C78.6,69.2,81.3,66.5,84,63.8z M72.9,44
				c0,2.1,0,3.8,0,5.5c0,0.2,0.5,0.6,0.8,0.7c1.2,0.1,2.5,0.1,3.8,0c0.4,0,0.8-0.2,1.3-0.3c-0.2-0.5-0.3-1-0.6-1.3
				c-1.2-1.3-2.4-2.5-3.7-3.7C74.2,44.4,73.6,44.3,72.9,44z M86.1,61.9c0.8-0.9,1.8-1.5,1.4-2.6c-0.2-0.5-0.8-1-1.3-1.1
				c-1.1-0.2-1.7,0.7-2.2,1.5C84.7,60.5,85.3,61.2,86.1,61.9L86.1,61.9z M70.5,75.3c0.7-0.2,1.2-0.2,1.7-0.4
				c0.6-0.2,1.2-0.6,1.7-0.9c-0.4-0.6-0.8-1.1-1.2-1.7c0,0-0.1,0-0.1-0.1c-0.7-0.6-1.2-0.3-1.4,0.4C70.9,73.6,70.8,74.3,70.5,75.3z"
				/>
			<path class="st1" d="M64.6,61.3c-3.1,0-6.3,0-9.4,0c-1.2,0-1.8-0.5-1.8-1.4c0-0.9,0.6-1.3,1.8-1.3c6.3,0,12.7,0,19.1,0
				c1.1,0,1.7,0.5,1.7,1.3c0,0.8-0.6,1.3-1.7,1.3C71,61.3,67.8,61.3,64.6,61.3L64.6,61.3z"/>
			<path class="st1" d="M57.7,78.5c-0.3-0.1-0.6-0.1-0.7-0.2c-1.2-1.1-2.3-2.2-3.4-3.5c-0.2-0.2,0-1.2,0.3-1.4
				c0.4-0.3,1.1-0.2,1.5-0.1c0.4,0.1,0.6,0.6,1,0.9c0.7,0.7,1.5,0.7,2.2,0c2.1-2.1,4.1-4.1,6.2-6.2c0.9-0.9,1.6-1,2.2-0.3
				c0.5,0.6,0.4,1.4-0.4,2.2c-2.6,2.6-5.2,5.2-7.8,7.8C58.5,78,58,78.3,57.7,78.5L57.7,78.5z"/>
			<path class="st1" d="M60.3,49.8c-1.8,0-3.5,0-5.3,0c-0.9,0-1.5-0.2-1.6-1.2c-0.1-0.8,0.5-1.4,1.5-1.4c1.7,0,3.5,0,5.2,0
				c1.8,0,3.7,0,5.5,0c1.2,0,1.7,0.5,1.7,1.4c0,0.9-0.5,1.3-1.4,1.3C64.1,49.8,62.2,49.8,60.3,49.8L60.3,49.8z"/>
			<path class="st1" d="M60.4,53c1.8,0,3.7,0,5.5,0c0.9,0,1.5,0.3,1.5,1.3c0,1-0.6,1.2-1.4,1.2c-3.7,0-7.3,0-11,0
				c-0.9,0-1.5-0.3-1.5-1.3c0-1,0.7-1.2,1.5-1.2C56.8,53,58.6,53,60.4,53z"/>
		</g>
	</g>
</g>
</svg>
