<?xml version="1.0" encoding="utf-8"?>
<!-- Generator: Adobe Illustrator 28.1.0, SVG Export Plug-In . SVG Version: 6.00 Build 0)  -->
<svg version="1.1" id="_レイヤー_2" xmlns="http://www.w3.org/2000/svg" xmlns:xlink="http://www.w3.org/1999/xlink" x="0px"
	 y="0px" viewBox="0 0 120 120" style="enable-background:new 0 0 120 120;" xml:space="preserve">
<style type="text/css">
	.st0{display:none;fill:#FFFFFF;}
	.st1{fill:#0068B4;}
</style>
<circle class="st0" cx="60" cy="60" r="60"/>
<g>
	<path class="st1" d="M14.4,92.8V14.5h62c1.5,1.1,2.1,2.6,1.9,4.5c-0.2,2.1-0.2,4.1,0,6.2c0,0.9,0.6,2.1,1.1,2.8
		c2.1,2.2,4.3,4.5,6.6,6.6c2.1,1.9,3,4.1,3,7.1c-0.2,4.3,0,8.4,0,12.7c0,0.7,0.2,1.3,0.2,2.6c1.3-1.3,2.4-2.2,3.4-3.2
		c4.1-3.6,10.3-2.1,12.4,3c0.2,0.4,0.4,0.9,0.7,1.3v2.8c-1.3,3.4-4.1,5.6-6.6,8.2c-2.8,2.8-5.4,5.6-8.2,8.2
		c-1.3,1.1-1.9,2.4-1.9,4.3c0.2,6.6,0,13.3,0,19.9c0,1.9-0.4,3.2-2.1,3.9H27.3c-1.5-0.7-2.1-2.1-1.9-3.7c0.2-1.7,0-3.6,0-5.2
		s-0.6-2.2-2.1-2.1c-1.5,0.2-3-0.2-4.5,0C17,95,15.5,94.5,14.4,92.8L14.4,92.8z M68.1,30.8c-0.6-0.2-0.6-0.2-0.7-0.2
		c-11.8,0-23.8,0-35.8,0c-1.5,0-1.5,0.9-1.5,1.9c0,22.1,0,44,0,66.1c0,1.7,0.6,2.1,2.1,2.1c16.7,0,33.3,0,50.2,0
		c1.7,0,2.1-0.6,2.1-2.1c0-3.9,0-8.1,0-12c0-0.6-0.2-1.1-0.4-2.2c-2.2,2.4-4.1,4.5-6.2,6.4c-0.9,0.7-2.1,1.5-3.2,1.9
		c-2.8,0.7-5.6,1.5-8.4,2.1c-2.2,0.6-3.7-1.1-3.2-3.2c0.6-2.4,1.3-4.9,1.7-7.3c0.4-2.1,1.3-3.6,2.8-5.1c5.2-5.1,10.3-10.3,15.4-15.4
		c1.1-1.1,1.5-2.2,1.5-3.7c-0.2-3.7-0.2-7.5,0-11.4c0-1.7-0.6-2.1-2.1-2.1c-3.4,0-6.9,0-10.3,0c-3.2,0-3.7-0.6-3.7-3.7
		C68.1,38.8,68.1,34.9,68.1,30.8L68.1,30.8z M19.6,19.7c0,0.9,0,1.7,0,2.4c0,6.6,0,13.1,0,19.7c0,15.4,0,30.5,0,45.9
		c0,0.7,0.2,2.1,0.4,2.1c1.5,0.2,3.2,0.4,4.7,0c0.4,0,0.7-1.7,0.7-2.6c0-19.1,0-38.4,0-57.5c0-3.4,0.6-3.9,4.1-3.9
		c13.9,0,27.5,0,41.4,0c0.7,0,1.5,0,2.4,0v-5.8L19.6,19.7L19.6,19.7z M93.8,67.3c-1.1-1.3-2.4-2.6-3.2-3.6
		c-5.2,5.2-10.3,10.3-15.2,15c1.1,1.1,2.2,2.4,3.2,3.4C83.7,77.4,88.8,72.4,93.8,67.3z M73,30.2c0,3.9,0,7.1,0,10.3
		c0,0.4,0.9,1.1,1.5,1.3c2.2,0.2,4.7,0.2,7.1,0c0.7,0,1.5-0.4,2.4-0.6c-0.4-0.9-0.6-1.9-1.1-2.4c-2.2-2.4-4.5-4.7-6.9-6.9
		C75.5,31,74.3,30.8,73,30.2z M97.7,63.7c1.5-1.7,3.4-2.8,2.6-4.9c-0.4-0.9-1.5-1.9-2.4-2.1c-2.1-0.4-3.2,1.3-4.1,2.8
		C95.1,61.1,96.2,62.4,97.7,63.7L97.7,63.7z M68.5,88.8c1.3-0.4,2.2-0.4,3.2-0.7c1.1-0.4,2.2-1.1,3.2-1.7c-0.7-1.1-1.5-2.1-2.2-3.2
		c0,0-0.2,0-0.2-0.2c-1.3-1.1-2.2-0.6-2.6,0.7C69.3,85.7,69.1,87,68.5,88.8z"/>
	<path class="st1" d="M57.5,62.6c-5.8,0-11.8,0-17.6,0c-2.2,0-3.4-0.9-3.4-2.6s1.1-2.4,3.4-2.4c11.8,0,23.8,0,35.8,0
		c2.1,0,3.2,0.9,3.2,2.4s-1.1,2.4-3.2,2.4C69.5,62.6,63.5,62.6,57.5,62.6L57.5,62.6z"/>
	<path class="st1" d="M44.5,94.8c-0.6-0.2-1.1-0.2-1.3-0.4c-2.2-2.1-4.3-4.1-6.4-6.6c-0.4-0.4,0-2.2,0.6-2.6
		c0.7-0.6,2.1-0.4,2.8-0.2s1.1,1.1,1.9,1.7c1.3,1.3,2.8,1.3,4.1,0c3.9-3.9,7.7-7.7,11.6-11.6c1.7-1.7,3-1.9,4.1-0.6
		c0.9,1.1,0.7,2.6-0.7,4.1c-4.9,4.9-9.7,9.7-14.6,14.6C46,93.9,45.1,94.5,44.5,94.8L44.5,94.8z"/>
	<path class="st1" d="M49.4,41.1c-3.4,0-6.6,0-9.9,0c-1.7,0-2.8-0.4-3-2.2c-0.2-1.5,0.9-2.6,2.8-2.6c3.2,0,6.6,0,9.7,0
		c3.4,0,6.9,0,10.3,0c2.2,0,3.2,0.9,3.2,2.6s-0.9,2.4-2.6,2.4C56.5,41.1,53,41.1,49.4,41.1L49.4,41.1z"/>
	<path class="st1" d="M49.6,47.1c3.4,0,6.9,0,10.3,0c1.7,0,2.8,0.6,2.8,2.4c0,1.9-1.1,2.2-2.6,2.2c-6.9,0-13.7,0-20.6,0
		c-1.7,0-2.8-0.6-2.8-2.4c0-1.9,1.3-2.2,2.8-2.2C42.9,47.1,46.2,47.1,49.6,47.1z"/>
</g>
</svg>
