<?xml version="1.0" encoding="utf-8"?>
<!-- Generator: Adobe Illustrator 28.1.0, SVG Export Plug-In . SVG Version: 6.00 Build 0)  -->
<svg version="1.1" id="_レイヤー_2" xmlns="http://www.w3.org/2000/svg" xmlns:xlink="http://www.w3.org/1999/xlink" x="0px"
	 y="0px" viewBox="0 0 120 120" style="enable-background:new 0 0 120 120;" xml:space="preserve">
<style type="text/css">
	.st0{fill:#FFFFFF;}
	.st1{fill:#0068B4;}
</style>
<g id="contents">
	<g>
		<circle class="st0" cx="60" cy="60" r="60"/>
		<g>
			<path class="st1" d="M71.9,69.2c0.3,0.7,0.2,1.2,0,1.8c-0.2,0.7-0.8,1.1-1.6,1.2c-0.9,0-1.7-0.3-2.5-0.8
				c-0.3-0.2-0.5-0.3-0.7-0.4c-0.1,0.4,0,0.8-0.2,1.2c-0.3,1-1.2,1.4-2.3,1.3c-1-0.1-1.9-0.5-2.7-1.1c-0.1-0.1-0.2-0.1-0.2-0.2
				c0,0.4,0,0.8-0.2,1.1c-0.3,0.8-1.4,1.4-2.3,1.4c-0.7,0-1.2-0.3-1.8-0.7c-1.6-0.9-3.1-2-4.5-3.2c-2.2-1.7-4.3-3.4-6.4-5.2
				c-0.8-0.7-1.8-1.2-2.8-1.4c-0.2,0-0.4,0-0.6-0.1V46.8c0.6,0,1.2,0,1.8-0.1c0.1,0,0.2,0,0.3,0c0.6,0,1-0.2,1.5-0.5
				c1.2-1,2.6-1.7,4-2.4c0.2-0.1,0.5,0,0.7,0c0,0,0,0.1,0,0.1c-0.1,0.1-0.2,0.2-0.4,0.3c-1.5,1.1-3,2.2-4.3,3.5
				c-0.3,0.3-0.6,0.6-0.9,0.9c-0.4,0.4-0.5,1-0.3,1.5c0.4,1.2,1.1,2.2,2.3,2.8c2.9,1.6,5.8,1.2,8.5-0.5c1.1-0.7,2.2-1.5,3.3-2.3
				c0.5-0.3,0.9-0.6,1.4-0.9c0.5-0.3,0.8-0.2,1.2,0.2c1.1,1.2,2.2,2.5,3.2,3.7c1.7,2,3.5,4,5.2,6c2.1,2.4,4.2,4.9,6.3,7.3
				c0.1,0.1,0.1,0.1,0.1,0.2c0,0.8,0,1.5-0.4,2.2c-0.4,0.5-0.9,0.7-1.5,0.8c-0.9,0.1-1.8-0.2-2.7-0.4C72.2,69.3,72.1,69.2,71.9,69.2
				L71.9,69.2z"/>
			<path class="st1" d="M80.9,65.5c-0.9,0-1.6,0.3-2.4,0.7c-0.7-0.8-1.3-1.6-2-2.3c-1.8-2.1-3.7-4.2-5.5-6.3c-1.2-1.3-2.3-2.7-3.5-4
				c-1.7-2-3.5-4-5.2-6c-0.3-0.4-0.7-0.5-1.2-0.3c-0.7,0.2-1.2,0.6-1.8,1c-1.3,0.9-2.5,1.8-3.9,2.6c-0.9,0.6-1.8,1-2.9,1.2
				c-1.7,0.3-3.2,0-4.5-1.1c-0.3-0.2-0.6-0.6-0.8-0.9c-0.2-0.4-0.1-0.8,0.2-1.1c0.9-0.8,1.8-1.5,2.8-2.2c2.3-1.8,4.7-3.5,7.1-5.2
				c0.3-0.2,0.7-0.3,1.1-0.4c2-0.4,4-0.5,6-0.2c1.4,0.2,2.7,0.5,3.9,1.2c0.6,0.3,1.1,0.7,1.6,1c1.5,0.9,3.2,1.5,4.8,2
				c1.9,0.6,3.9,1.1,5.9,1.5c0.2,0,0.3,0.1,0.3,0.3c0,3.6,0,7.1,0,10.7c0,2.5,0,5,0,7.5C80.9,65.3,80.9,65.4,80.9,65.5L80.9,65.5z"
				/>
			<path class="st1" d="M33.8,57.5c0-2.3,0-4.7,0-7c0-2.3,0-4.6,0-6.8c0-0.6,0.4-1,1-1c1.9,0,3.8,0,5.7,0c0.6,0,1,0.4,1,1
				c0,4.4,0,8.8,0,13.3c0,4.4,0,8.8,0,13.2c0,0.4,0,0.8,0,1.2c0,0.6-0.4,1-1,1c-1.9,0-3.9,0-5.8,0c-0.6,0-0.9-0.4-0.9-1
				c0-1.8,0-3.7,0-5.5c0-2.6,0-5.2,0-7.8C33.8,57.8,33.8,57.6,33.8,57.5L33.8,57.5L33.8,57.5z"/>
			<path class="st1" d="M82.6,57.5c0-4,0-8.1,0-12.2c0-0.6,0-1.1,0-1.7c0-0.6,0.4-1,1-1c1.9,0,3.8,0,5.7,0c0.6,0,1,0.4,1,1
				c0,1.7,0,3.5,0,5.2c0,1.8,0,3.7,0,5.5c0,3.9,0,7.8,0,11.7c0,1.8,0,3.5,0,5.3c0,0.7-0.4,1.1-1.1,1.1c-1.9,0-3.7,0-5.6,0
				c-0.6,0-1-0.4-1-1c0-4,0-8.1,0-12.1C82.6,58.6,82.6,58,82.6,57.5C82.6,57.4,82.6,57.4,82.6,57.5L82.6,57.5z"/>
		</g>
	</g>
</g>
</svg>
