<?xml version="1.0" encoding="utf-8"?>
<!-- Generator: Adobe Illustrator 28.1.0, SVG Export Plug-In . SVG Version: 6.00 Build 0)  -->
<svg version="1.1" id="_レイヤー_2" xmlns="http://www.w3.org/2000/svg" xmlns:xlink="http://www.w3.org/1999/xlink" x="0px"
	 y="0px" viewBox="0 0 120 120" style="enable-background:new 0 0 120 120;" xml:space="preserve">
<style type="text/css">
	.st0{display:none;fill:#FFFFFF;}
	.st1{fill:#0068B4;}
</style>
<circle class="st0" cx="60" cy="60" r="60"/>
<g>
	<path class="st1" d="M78.7,81.7c0.6,1.3,0.4,2.3,0,3.4c-0.4,1.3-1.5,2.1-3,2.3c-1.7,0-3.2-0.6-4.7-1.5c-0.6-0.4-0.9-0.6-1.3-0.8
		c-0.2,0.8,0,1.5-0.4,2.3c-0.6,1.9-2.3,2.7-4.4,2.5c-1.9-0.2-3.6-0.9-5.1-2.1c-0.2-0.2-0.4-0.2-0.4-0.4c0,0.8,0,1.5-0.4,2.1
		c-0.6,1.5-2.7,2.7-4.4,2.7c-1.3,0-2.3-0.6-3.4-1.3c-3-1.7-5.9-3.8-8.5-6.1c-4.2-3.2-8.1-6.4-12.1-9.9c-1.5-1.3-3.4-2.3-5.3-2.7
		c-0.4,0-0.8,0-1.1-0.2V39.2c1.1,0,2.3,0,3.4-0.2c0.2,0,0.4,0,0.6,0c1.1,0,1.9-0.4,2.8-0.9c2.3-1.9,4.9-3.2,7.6-4.5
		c0.4-0.2,0.9,0,1.3,0v0.2c-0.2,0.2-0.4,0.4-0.8,0.6c-2.8,2.1-5.7,4.2-8.1,6.6c-0.6,0.6-1.1,1.1-1.7,1.7c-0.8,0.8-0.9,1.9-0.6,2.8
		c0.8,2.3,2.1,4.2,4.4,5.3c5.5,3,11,2.3,16.1-0.9c2.1-1.3,4.2-2.8,6.3-4.4c0.9-0.6,1.7-1.1,2.7-1.7c0.9-0.6,1.5-0.4,2.3,0.4
		c2.1,2.3,4.2,4.7,6.1,7c3.2,3.8,6.6,7.6,9.9,11.4c4,4.5,8,9.3,11.9,13.8c0.2,0.2,0.2,0.2,0.2,0.4c0,1.5,0,2.8-0.8,4.2
		c-0.8,0.9-1.7,1.3-2.8,1.5c-1.7,0.2-3.4-0.4-5.1-0.8C79.2,81.9,79,81.7,78.7,81.7L78.7,81.7z"/>
	<path class="st1" d="M95.7,74.7c-1.7,0-3,0.6-4.5,1.3c-1.3-1.5-2.5-3-3.8-4.4c-3.4-4-7-8-10.4-11.9c-2.3-2.5-4.4-5.1-6.6-7.6
		c-3.2-3.8-6.6-7.6-9.9-11.4c-0.6-0.8-1.3-0.9-2.3-0.6c-1.3,0.4-2.3,1.1-3.4,1.9c-2.5,1.7-4.7,3.4-7.4,4.9c-1.7,1.1-3.4,1.9-5.5,2.3
		c-3.2,0.6-6.1,0-8.5-2.1c-0.6-0.4-1.1-1.1-1.5-1.7c-0.4-0.8-0.2-1.5,0.4-2.1c1.7-1.5,3.4-2.8,5.3-4.2c4.4-3.4,8.9-6.6,13.5-9.9
		c0.6-0.4,1.3-0.6,2.1-0.8c3.8-0.8,7.6-0.9,11.4-0.4c2.7,0.4,5.1,0.9,7.4,2.3c1.1,0.6,2.1,1.3,3,1.9c2.8,1.7,6.1,2.8,9.1,3.8
		c3.6,1.1,7.4,2.1,11.2,2.8c0.4,0,0.6,0.2,0.6,0.6c0,6.8,0,13.5,0,20.3c0,4.7,0,9.5,0,14.2C95.7,74.3,95.7,74.5,95.7,74.7L95.7,74.7
		z"/>
	<path class="st1" d="M6.5,59.5c0-4.4,0-8.9,0-13.3s0-8.7,0-12.9c0-1.1,0.8-1.9,1.9-1.9c3.6,0,7.2,0,10.8,0c1.1,0,1.9,0.8,1.9,1.9
		c0,8.3,0,16.7,0,25.2c0,8.3,0,16.7,0,25c0,0.8,0,1.5,0,2.3c0,1.1-0.8,1.9-1.9,1.9c-3.6,0-7.4,0-11,0c-1.1,0-1.7-0.8-1.7-1.9
		c0-3.4,0-7,0-10.4c0-4.9,0-9.9,0-14.8C6.5,60.1,6.5,59.7,6.5,59.5L6.5,59.5L6.5,59.5z"/>
	<path class="st1" d="M98.9,59.5c0-7.6,0-15.3,0-23.1c0-1.1,0-2.1,0-3.2c0-1.1,0.8-1.9,1.9-1.9c3.6,0,7.2,0,10.8,0
		c1.1,0,1.9,0.8,1.9,1.9c0,3.2,0,6.6,0,9.9c0,3.4,0,7,0,10.4c0,7.4,0,14.8,0,22.2c0,3.4,0,6.6,0,10c0,1.3-0.8,2.1-2.1,2.1
		c-3.6,0-7,0-10.6,0c-1.1,0-1.9-0.8-1.9-1.9c0-7.6,0-15.3,0-22.9C98.9,61.6,98.9,60.4,98.9,59.5C98.9,59.3,98.9,59.3,98.9,59.5
		L98.9,59.5z"/>
</g>
</svg>
