<?xml version="1.0" encoding="UTF-8"?><svg id="_レイヤー_2" xmlns="http://www.w3.org/2000/svg" viewBox="0 0 524.08 490.08"><defs><style>.cls-1{fill:#f58c3f;}.cls-1,.cls-2,.cls-3,.cls-4,.cls-5,.cls-6,.cls-7,.cls-8{stroke:#e4ffe5;stroke-width:.2px;}.cls-2{fill:#71d5cb;}.cls-3{fill:#e77972;}.cls-4{fill:#efb839;}.cls-5{fill:#bfc743;}.cls-6{fill:#75b777;}.cls-7{fill:#51bbd1;}.cls-8{fill:#69c;}</style></defs><g id="contents"><g><path id="NAGASAKI" class="cls-3" d="M21.42,387.21l-.24,.12-.61,2.66,.36,.12h.24l.24-.24v-2.66Zm.12,3.15l-.12,1.45-.73,.73v.61l.48,.48h-.61l-.48,.73,.12,.36,.61,.24-.12,.48h-.73l-.48-.85-.36,.85,.85,.61h.61l1.21-.48,.97-1.33,.73-1.33s-.61-.36-.48-.36c.24-.12,.48-.12,.61-.24l-.24-.48h.61l.24-.36-.61-.36,.61-.24,.36-.73v-1.57h-.85v.73h-.36l-.12,.73-1.69,.36Zm-9.56,2.42l.48-.61,.73-.12,.12-.36h.36c.12,.36,.24,.73,.48,.97l-.61,.24-.12,.48h-.48l-.61-.61c0,.12-.36,0-.36,0h0Zm.97,3.39l-.36,1.09,.12,.61,.12,.36-.12,.36-.36,.24-.24,.61,.24,.24v.48h-.36c0-.12-.12-.24-.12-.36,0,0-.36,.12-.36,.24s-.12,.36-.12,.48l-.73,.24-.36,.36h.36l.61-.24,.12,.48,.24,.36c-.12,.12-.24,.24-.48,.36h-.61l-.48,.48v.36c.24,.24,.48,.36,.85,.61l.61,.61v2.18l.12,.61,.61,.36v-.73l-.12-.48,.48-.24,.48,.12,.12-.61-.24-.61,.24-.36,.24-.73v-.61l.73,.24,.24-.48,.85-.61v-.73l-.48-.36-.97,.48-.85,.12v-1.09l.24-1.33,.61-1.45-.48-.61,.24-.85-.61-.24Zm.36-1.69l.61,.73-.36,.12,.24,.73-.61-.36v-1.09c0,.12,.12,0,.12-.12Zm-3.99,8.96l.97,.24,.36,.24,.12,1.09v.61l-.97-.48h-.73l-.24-.85v-.73l.48-.12Zm-.61,1.69l.61,.97-.36,1.33-.36,.48-.85-1.57-.61-.12v-.61l.48-.36,.24,.36,.61,.24-.12-.61,.36,.24v-.36Zm-1.94,1.21l.73,.48,.36,.85-.73,.97-.97-.24-.48-.61,.24-1.09h.36l.36,.97,.48-.12-.36-1.21Zm-4.48,3.15l1.09-.48,.12,.48,.36-.48,.36,.48,.12-1.09s.36,.24,.36,.12,.48-.85,.48-.85l.61,1.33,.61,.24-.24,1.45,.12,.36,1.21,1.21-.12,.48-1.94,.12-.24-.48-.97,.24v.85l.61,.36v.48l-.48,.61h-.48l-.12-.61-.24-.36-1.94-.12-.12,.48H.84v-.36l-.73-.12,.12-.85h.36v.61h.61l.61-1.57-.48-1.09,.24-.36-.24-.61v-.97l.48-.48h.61l.36,.48-.48,.48Zm15.37-58.34l.24-1.21,.48-1.33,1.57,.12,.85-1.69,.48-.36,1.57,1.09-.61,.73,.48,.24-.61,1.09-.61-.61-.36,.48,.97,.61,.12,.61-.12,.73c-.61,1.09-1.33,2.06-2.18,2.91l-.24,.61,.36,.12-.36,1.21,.61-.61-.24,1.57,.48,.24-.24,.85-.73,.73-.48-.48v-1.45l-.36-.24-.61,.85-.48-.36,.36-.73-.36-.12-.48,.97s-1.45,.24-1.45,.12v-.48l1.09-.12,.12-1.69,.85-.85h-.73l.12-.85,.73-1.33,.85-.12-1.09-1.21Zm-2.42,7.63h.61v.85l1.09-.12,.48,.24-.48-.61c.12,0,.24-.12,.36-.12l.85,1.09h.61l.61-.12h.48l-.48,.61-.97,.12-.12,1.45-.48,.48s-.73,2.66-.73,2.78c-.48,.48-.97,.85-1.57,1.33l-.36-1.09-.61,.36,.24-2.42,.24-2.3,.24-2.54Zm12.59,15.37l.73-.24,1.57,.48-.36,1.09,.97,.73v.24l-.73-.12v.48h.61v.85s-1.69-.24-1.69,.97h-.85l-.24-.48,.12-.48h-.73l-.36-.73h.85l-.61-.48v-1.09l.85,.36-.36-.61,.24-.97Zm12.47,29.9l-.97,.36-1.21,.97,.85,.85,1.69,.12,1.45-1.09,1.69-.24,1.09,.97,.73,1.94-.12,1.69-.61,.85,.12,.61-1.21,1.21-1.09,.12-1.21,1.45-1.09,.12-1.21-1.21-.12-.97,2.06-1.57v-.97l-.48-.12-.12-.61,.24-.48-1.45-.12-1.21-.36-1.57,1.45-1.57-.48-.12,.73-1.69,3.15c-.48,.12-.85,.24-1.33,.36,0,.12-1.45,1.82-1.45,1.82l-1.21,.12,.85-.73,.97-1.69,.36-.61-.73-.61,1.21-.12,.61-1.33-.73,.61-.97-1.33,.12-.48-.85-.48,.24-.73h-.85l-.36,.36-.85-.61-.73-1.94-.73-1.33c-.12-.12-.36-.36-.48-.48v-1.21l.48-.36-.12-1.33,.48-.73,.24-1.09,.97,.24,.12,.36,.36,.24v.61l.48-.24,.12,.36-.73,.85,.24,.61,.73-.61,.24,.12,.85,.12,.48,.97-.36,.61v1.21h-.36v-.73l-.24,.12s-.12,.97,0,.97h.61v.48l-.36,.24v.48l1.57,.97,.12-.73,.36,.36,.36-.97,.24,.24,.24-.24,.85,.36,.85,.48v.24l.97-.12-1.09-1.09,.36-.12-.12-.24-.48-.24-.48-1.09v-1.09l.24-.24,.12-.97-1.82-1.82h-.61l-.85,.97-.24-.12v-.61l-.73-.61h-.48l-.36-.73,.36-.61-1.21-.24-.24,.48-1.09,.24-.24-.48,.48-.36-.24-.73-.48,.12v-.73l-.24-.61-.73,.61-.24-.97-1.21,.12-.24-1.94,1.57-1.21-.85,.12-.36-.36-.12-.36,.36-.12v-1.33l1.94,.24,.48-.97,.24,.24-.24,.97,1.09,.36,.61-.61,.48,.24,.48-.24h.24v.97l-.73,1.45,1.21,1.45s.12,1.21,0,1.09,.61,1.33,.61,1.33l2.54,.12,.61,1.69-.61,.24,.36,1.21,1.21,.61,1.69,1.94,2.54,.73,1.21,.24-.48,.97Z"/><path id="FUKUOKA" class="cls-3" d="M44.9,394.96l2.66-3.03,2.42-2.06v-2.66l-.97-.24-1.69,.85-.12,.61-.61,.12-.36-.97-3.15-1.57-4.48,.12-1.57-.12,.12-.61,1.94-.61,1.57-1.33-1.45,.24,.36-.73-.73,.12-.61-.61,1.69-.12,.36-.48-.12-.61,1.45-.97,.61,.12-.12,.73,1.21,.36-.36,.85,1.09-.12,2.18-.36,.85-1.57,.24-.97h-.73l-1.09,.73-.12,.48-1.57-.61-.48-.61,.36-.48,.48,.73,.97,.24,1.69-1.57,1.21-1.09-.24-1.45,.61-1.94,1.09-.36v-.85l1.21,.12,.24,.36s.97,.36,2.18-.61l.48-1.21,2.18,.12,.61-.48h1.45l1.33,1.45,1.21-.48,.73-1.33h1.21s-.73,3.51-.73,3.51l-.73,.97,.73,.36-.12,1.45,2.66,4.84c.24-.12,.61-.24,.85-.36l1.45,.61,.12,1.69-.61,1.69-3.99-.48-2.66,2.3-.61,1.94-.97,1.45,.48,2.3-.97,.36,.24,1.33,1.21,.97-.97,2.54-1.45-.61-2.78-1.33-.73,1.82-2.18-.36-.12,.97-1.94,1.21,.48,1.45-2.3,.12v-2.3l-.61-.73-.36-1.33-.61-.24-.24-1.69Z"/><path id="SAGA" class="cls-3" d="M30.98,393.39l-1.21-1.45,.73-1.45,.61,.61,.61,.97s.24-.12,.24-.24-.24-.61-.24-.61l.36-1.45,.36-.61v-.85l-.73-.12-1.21-1.45c.24-.24,.36-.61,.61-.97l.85,.97,.36-.24-.61-1.57,.61-.24,.61-.73h1.09l.85,.73-.48,1.21,.73,.85s.85,.73,1.45,0l.24-.85,1.45,.12,4.48-.12,3.27,1.57,.36,.97,.61-.12,.12-.61,1.69-.85,.97,.24v2.66l-2.42,2.06-2.66,3.03,.36,1.69-1.82-.12-.12-.36-1.21-.97-2.18,2.66-.48-.48,.12,.61,.97,1.69,.61,1.82,.85,.61v.61h-.48l-1.21-.24-2.54-.73-1.69-1.94-1.21-.61-.36-1.21,.61-.24-.73-1.82-2.54-.12s-.73-1.45-.61-1.33,0-.97,0-.97Z"/><path id="KUMAMOTO" class="cls-3" d="M49.98,418.08l.12-.85,.48-.36-.97-.73,2.18-1.94,1.21-.73-.36-.73-1.69,.36-1.69,.48-1.45,.24-.12-.61,2.18-1.45,.61-.61,1.21-.73v-2.54l-.85-1.69-1.21-.36-.12-.97-1.94-1.21-.61-2.66,2.3-.12-.61-1.57,1.94-1.21,.12-.97,2.18,.36,.73-1.82,2.78,1.33,1.45,.61,1.82,1.33,.97,.24,.73,.97,.73-.61c.12-.61,.24-1.09,.36-1.69-.36-.48-.73-1.09-1.21-1.45l.61-1.33,.73-.12,2.06,.12,1.45,1.57,1.21,2.3,1.21,3.03-.12,2.42,1.21,.97,.97,.85-1.45,.36s-1.33,2.18-.85,2.18l-1.09,.97-.73,1.69-.85-.24-.61,2.06-.61,.97-1.33,.12-1.21,3.03,1.21,2.3,.73,.36,.12,1.33,.97,1.09-1.45,1.57-.24,.97,1.45,1.69v1.33l-2.54-.61-1.09,1.69-1.45-.61-1.69,1.21h-3.27l-.97-.61-.73-.97-1.21-1.21-1.45,1.33-2.06,.73h-1.57l-1.21-1.33,.36-1.09,.85-1.21h.85v-1.09l.97-.85s.36-2.3,.36-2.42,1.94-2.06,1.94-2.06v-1.21l-.73,.36Zm-5.57-1.45l1.09-.24c.12,.24,.36,.48,.61,.73l.85-.73,.73,.12-1.09,3.15v.48l-.97,.61h-.73l-.12-.97-.36,.61-1.21-.12-.24-.12-.36,.73-.61-.12,.12-.73-.61-.48,.12-.73,2.78-2.18Zm-7.63,6.66h-1.09l-.36-1.09,.73-2.3c.61-.85,.97-1.82,.97-2.91l-.73-.48,.61-.36,.24,.48,.48,.24,1.33-.97,2.06,.12s.12,3.03,.24,3.03v2.06l.36-.24,.36,.61-.36,.36v.73l-.73,.73-.24-.97-.48,.36-.36,.97h.85l-.24,.48-.85,.24-.97,1.69-1.33,.36,.48,1.69c-.24,0-.48,.12-.61,.12l-.85-1.45,.36-1.21-1.21-.24,1.21-1.57,.12-.48Zm8.47-1.21l.48,.12-.61,1.09-1.21,.36,.48-.36,.12-.73,.73-.48Zm1.45-8.47h.61l.24,.36-.12,.85v.85l-1.21,.12,.36-1.09-.73-.12,.85-.97Z"/><path id="KAGOSHIMA" class="cls-3" d="M40.3,439.87l.61-1.69s1.82-2.66-.61-4.72l.61-1.21,.24-.85-.85-.61,.24-.97,.97-.61h1.21l.24,.48,.97,.12,.61-.48,.61-1.21,1.21,1.33h1.57l2.06-.73,1.57-1.45,1.21,1.21,.73,.97,.97,.61-.36,1.45,1.69,1.21,.24,1.09,.97,1.45,1.21,.12,.97,1.45-.61,1.57,.24,.97,2.42,.97-.36,.73,1.09,.48,.97,3.27,.61-.85,.97,.97h.85l.61-.24,.97,1.94-.24,2.3-.85,.48v.97l-1.45-.36s-2.66,1.57-2.3,3.39l2.18,1.33,.12,.36-.85,.61,.12,.48,.97-.12-1.21,1.69-1.57,.12-.61,1.69-.36,.97-2.91,1.69h-1.09l-2.66,1.57-1.09,1.69-.61-.12,.48-.85,.12-1.21-.61-.48,1.82-1.21,1.09-2.3-.36-.61,.97-1.45,.36-2.78s-1.45-3.75-2.54-3.99l-.24-1.45,.12-1.09-1.57-.12-1.21-.97,.73-1.21,1.45-.36,.85,.48,.12,1.45,.73,.12s.97,.36,1.45-2.06l.61-.97-.85-1.45-1.57-.48-.97-.61s-3.03,.97-2.18,2.42l-.48,1.21-.61,.73,.12,.73-.24,.73-.97,1.33-.12,1.09s-.24,5.2,3.75,6.42l-.36,1.45-.61,.73,.36,.12-.24,.61-.85-.12-.36,.61-.97-.36-.97,.12,.12-.85s.12-2.18-3.51-1.94l-2.42-.48v.61l-1.82,.12,.36-.97-.97-.36,.61-.48-1.21-.61,.73-.36v-.73l-1.09-.48-1.09-1.57,1.21-.61,1.45,1.09c.48,.12,6.9-5.81-.73-11.26l-.12-.85Zm-2.06-12.35l.48-.36,.12-.85,1.21,.12,.36-.36,.85,.97-.61,.48v.36h.61v.48l-.61,.48-.48,1.45-.36-.36-.85-.48v-.97l-.73-.97Zm4.24-3.99l.36,.61-.61,.73-.73,.12,.12-1.09,.85-.36Zm15.61,58.95c1.94-1.45,2.91-3.99,2.3-6.54l1.33-2.3,.36-1.09s-.12-.24-.24-.24,.85-1.33,.85-1.33c0,0,.61-.61,.61-.48s.73,1.82,.73,1.82l-.36,.24,.12,2.18-.48,.97s.12,2.06,0,2.18l-.48,.48s-.12,.97-.12,1.09c-.24,.12-.61,.24-.85,.36l-.85,2.18,.36,1.57-.36,1.69s-1.94,0-2.18,1.09l-.73-.61,.12-.85v-1.33l-.12-1.09Zm-9.32,0l2.91,1.82,1.45,.97-.12,1.94-1.45,2.06-1.45,.73-2.78-.12-.61-.97-.12-.97-.85-1.82-.12-1.33,1.21-.24,1.21-2.06h.73Zm-17.55-44.54l.36-.85h.73l1.33,1.21v-.73l.36-.12,.12,1.45h-.61l-.73,.61-.36-1.09-1.21-.48Zm.61,.97c0,.12,.12,.73,.12,.73-.12,.12-.24,.36-.36,.48l-.48-.12,.12-.85c0,.12,.61-.24,.61-.24Zm-1.21,1.57l-.48,1.82h-.85l-.24,.73-.48,.97,.36,.12-.73,1.09-.97-.36-.24-.85,.36,.12,.48-1.45,.61-.73,1.21-.36,.61-1.09h.36Z"/><path id="MIYAZAKI" class="cls-3" d="M57.73,430.06l1.69-1.21,1.45,.61,1.09-1.69,2.54,.61v-1.33l-1.45-1.69,.24-.97,1.45-1.57-.97-1.09-.12-1.33-.73-.36-1.21-2.3,1.21-3.03,1.33-.12,.61-.97,.61-2.06,.85,.24,.73-1.69,1.09-.97c-.48,0,.85-2.18,.85-2.18l1.45-.36,.97,.97,1.33-.24,1.57-.73,.97,.97-.36,.97,1.69,.61s.73-.48,.73-.61,3.03-.12,3.03-.12l.97-1.82,2.78,.48-.12,1.69,.24,1.09-.36,.61,.12,.73s-.73-.12-.73-.24c-.36,.36-.73,.61-1.09,.97l-.85,.97,.48,.12-.73,1.21-.85,.24-.73,1.21,.12,1.21,.61-.36,.36,.97-.97,.85-.97-.36-.12,1.09h.61l.24,.85-.97,.36-.36,1.82s-1.21,1.33-2.42,7.14c0,0-1.82,6.29-2.18,7.87,0,0-.36,2.91,.97,3.27l-.85,2.18v1.45l.12,1.21s-1.82,1.33-1.94,2.78v1.94c-.24,.24-.48,.36-.73,.61l.48,.85-1.21,1.45,.36,.97c-.12,.12-.24,.12-.36,.24-.24-.36-.48-.73-.73-1.09l-.97,.48-.97-.36,.12-1.21-1.33-.97-.48-.48,.12-.97,.85-.48,.24-2.3-.97-1.94-.61,.24h-.85l-.97-.97-.61,.85-.97-3.27-1.09-.48,.36-.73-2.42-.97-.24-.97,.73-1.69-.97-1.45-1.21-.12-.97-1.45-.24-1.09-1.69-1.21,.36-1.45,2.91,.12Z"/><path id="OOITA" class="cls-3" d="M58.7,395.45l-1.21-.97-.24-1.33,.97-.36s-.48-2.18-.48-2.3,.97-1.45,.97-1.45l.73-1.94,2.66-2.3,3.99,.48,.61-1.69-.12-1.69,1.69,.24,.97,.73h3.51l1.21-1.21,1.21-1.69,1.45-.12,.24-.61,1.57,.36,1.57,1.57,.85,1.45,.12,1.45-.24,.85,.12,1.09-.85,1.57,.12,.61-.73-.36-1.33,.12,.73,.85v.36l-1.45,.12v.61c-.36,.12-.85,.12-1.21,.12l-.48-.48s-1.57-.36-.85,1.69c0,0-.24,2.18,1.57,1.82l.97,.24,2.3-.97,2.66,1.21,2.66-.73-.97,1.57,.12,.61-1.09,.61-.12,.97-.48,.73c.36,.12,.85,.36,1.21,.36,.36-.24,.73-.48,1.09-.61l.48,.36-1.45,1.33,1.94,.36,.12-.61,.36,.61h.97c.24-.48,.61-.85,.97-1.21,0,.61,0,1.21-.12,1.69l-2.06,.12-.36,.85c-.12,.36-.36,.85-.61,1.21,.24,.36,.61,.73,.97,1.09l.73-.12,.61,.73,.36-.61,.24,.61,1.09-.36,.85,.24,.12,.36-1.21,.12v.24l-.61-.24-.24,.48-.61-.36v.97l.61-.24,.24,.24-1.09,.73-.61,.61,.24,.48,.24-.36,.24,.36,.12-.48,.73,.12v.24l-.85,1.09-.73-.24v.48l-1.21-.24-.12,.97-.36-.61-.12,1.21-.61,.48-.24-1.09,.12-1.69-2.78-.48-.97,1.82-3.03,.12-.73,.61-1.69-.61,.36-.97-.97-.97-1.57,.73-1.33,.24-.97-.97-.97-.85-1.21-.97,.12-2.42-1.21-3.03-1.21-2.3-1.45-1.57-2.06-.12-.73,.12-.61,1.21c.48,.48,.85,.97,1.21,1.45-.12,.48-.36,1.09-.36,1.69l-.73,.61-.73-.97-.97-.24-1.82-1.33,1.21-2.3Z"/><path id="EHIME" class="cls-1" d="M114.13,363.61l.12-.48,1.09,.12,.24,.61,.73-.12-.12,.48-.36,.12-1.33,1.57h-.48v-1.45l.48,.12v-.61l-.36-.36Zm1.21-1.57l.85-.12,.12,.61h.61l-.48,.73-.36-.36-.48,.24-.36-.48,.12-.61Zm-2.66-1.21l.36-.61,.85-.36,.36,.12,.48,1.09,.12,1.09-.73,.48-.73-.12-.97,.61-.36-.61,.24-.48h.61l.12-.97-.36-.24Zm-8.96,42.85l-.48,.12-.48-.24,.12-.61-1.69,.24-.73,.61,.73,.24-1.45,.12v-.97l.73-.48-.73-.48,.36-.61,.48,.24,.36-.12-.24-.61-.73-.61v-.73l-.73,.24-.85-.61-.12,.85-.36,.61-.48-.36,.48-.36v-.97l.48-.36,.85,.61,.73-.36-.48-.73,.48-.48-.85-.85,1.33,.12h0s-1.57-.61-1.57-.61l.12-.85-.36-.61-.73,.61-.36-.85,.85-.48,.85,.12,.24,.97,1.21,.36-.12-1.21,.61-.36v-1.09l-1.21-.48,.24-.73,.85-.61c-.24,0-.36-.12-.61-.24-.48,0-1.09,.12-1.57,.24l-.48,.24-1.21-.61,1.21-.85,.12-1.09-.85,.61-.12-.36,.12-1.57,.61-.97-.97-.24-.61-.48-.73,.61-.48-.12-.61,.48-1.21,.73-.73,.24s-1.33,.85-1.33,.73-.12,.61-.12,.61l-.48,.36-.73-.12,.36-.48v-.36l-.73,.48-1.21,.61-.73,.24,1.21-1.21,1.45-1.09,.36,.36,.12-.36c.12,.12,.36,.24,.48,.24l.24-.36-.48-.12c.12-.12,.24-.12,.48-.24,0,0,.36,.24,.48,.24s0-.61,0-.61l.73-.24,.48,.24,.48-.61c.12,.12,.12,.24,.24,.36l.48-.12v-.48l.73-.24c.73-.36,3.15-2.06,3.15-2.06,.73-1.33,1.82-2.42,3.15-2.91,3.75-1.82,3.51-3.51,3.51-3.51l.73-.24v-.97l-.12-.97,.48-1.45-.24-.61,.12-.73h.85l.36-.48,.36-.97v-1.57l.73-.36,1.57-1.57,1.57-.24v-1.21l-.48-.36,1.09-.73,.73,.97c.24,.36,.36,.85,.48,1.21l.97,.61,.73,2.06,.85,1.21,1.33,.61,1.21-.48,1.57-.36,.73-.73,1.09-.36,.73,.36,1.21-.24,2.78,.61,1.09-1.09,1.21-1.21,.61,.24,.97,.12,.61,.61-.24,.85,.24,1.94-.73,1.45h-.85l-2.3,.12-1.21,1.45h-3.39l-1.94,.12-.97,1.33-.73,.24-.73-.61-2.06,4.24-.97,.61v.97l-.73,.97,.36,1.21-1.33,1.94-1.33,.48-3.27-.12-.73,.61,1.21,2.66,1.09,1.21-.73,1.09-1.82,.85-.73,.97-.12,1.33-.73,.12-1.45,2.06-1.57-1.69-.48,.36,.85,2.06,.61,.24,.36,4.84-.73,.48,.12,.61-.48-.24Z"/><path id="KOUCHI" class="cls-1" d="M131.44,373.9l1.69,.48,1.82-.12,1.57,1.45,1.21-.36,.24-.73,.73-.36,1.45,.61,.97,3.27-.36,.85,3.03,.24,.48,1.21-.97,.73,1.21,1.82,2.78,.61-.61,.97-1.09,1.69-.12,.61-.85,1.45,.36,.36-.61,.97-.48,3.51-.97-1.45h-.85l-.12-1.21-1.21-1.09-.61-.12-.12-1.09s-2.91-1.33-2.42-2.42l-2.42-.97-2.06-.12-.61-.73c-1.45-.12-3.03,.12-4.36,.85l-.36,.61-2.66,1.45-1.21,.24-1.21,.61,.24,.24,1.21-.36,.97-.36,.12,.48-1.33,.61h-1.45l-.61,.48-.73,.36-.48-.12-.73,.36,.12,.24v.61l-.85,.24v.36l.85,.24-.73,.48,.48,.48,.12,1.94s-.48,.61-.73,.61-.48,.36-.48,.36l.12,.97-.61-.12-.85,.73-.61,1.45-.73,.24-.36,2.06s-2.18-1.94-2.66,2.3l.36,1.09v1.09l-.48,.36s-.73,0-.73,.12-.12,1.57-.12,1.57l.97,.61,.73,1.09,.12,1.09-1.45-.12,.12-.61-.85-.85-1.82-.36-.61,.12-.36,.61-.97,.36-1.09-.24-.97-1.09-.48-.12-1.21,.48-.12,.48-.48-.12,.12-.85,.85-1.33-.12-.48,.97-1.09,.48,.12v-1.21l-1.45-.12-.12-.61,.73-.48-.36-4.84-.61-.24-.85-1.94,.48-.36,1.57,1.69,1.45-2.06,.73-.12,.12-1.33,.73-.97,1.82-.85,.73-1.09-1.09-1.21-1.21-2.66,.73-.61,3.27,.12,1.33-.48,1.33-1.94-.36-1.21,.73-.97v-.97l.97-.61,2.06-4.24,.73,.61,.73-.24,.97-1.33,1.94-.12h3.51l1.21-1.45,2.3-.12h.85l.61,1.33Z"/><path id="TOKUSHIMA" class="cls-1" d="M154.68,361.67l.36-.36,.36,.12v.48h.48l-.12,1.09-.85-.36-.24-.97Zm-22.63,6.9l.12-.61,1.45-1.09,1.09,.24,.12-.73,3.03-.61,.97,1.33,1.09-.48,.73-.97,1.69-.12,.73-.36-.12-.85,3.51-.97,2.42,.36,1.33,.36,.36-.24,.36-1.09h.73c.61-.61,1.57-.85,2.42-.48l.12-.48,.48,.12,.12,.48-.12,.61,1.45,.73-.85,1.82-.24,1.45s.12,2.06,0,2.06l.36,.73h.48l-.12-.61,.36,.12c.12,.85,.73,1.57,1.45,1.82v1.21l-.73,.85-.97,.36,.12,.61h1.21l.61-.12s0,.48,0,.36c-.24,0-.48,.12-.73,.12v.24h.85c.12-.12,.24-.24,.36-.36,.12,.12,.24,.12,.24,.24l-2.54,1.57h-.73c-.12,.24-.24,.36-.48,.61l-.73-.12-.12,.97-.61,.12-.12,.61-2.66,1.69-.73,.12-.97,1.09,.61,.12c-.24,.24-.36,.36-.61,.61v.61h-1.21l-.36,1.09-2.78-.61-1.21-1.82,.97-.73-.48-1.21-3.03-.24,.36-.85-.97-3.27-1.45-.61-.73,.36-.24,.73-1.21,.36-1.57-1.45-1.82,.12-1.69-.48-.97-.73,.73-1.45-.24-1.94,.24-.85,.85-.48Z"/><path id="KAGAWA" class="cls-1" d="M129.87,366.88l.12-2.06-.12-1.94-1.57-1.33,.12-.61,1.45,.97,.97-.24,.24,.36,1.82-1.69,2.42-1.33,1.21-.73,.24-.97,.97-.24,1.94,.85h2.06l-.12-.85,.73,.36,.36-1.09,.73,.73-.12,1.45,.61,.36,.12-.61,.85-.48,.73,.61,.36-.12,.12,.97-.12,.61,2.78,1.69,.61-.61,1.57,1.82-.36,1.09-.36,.24-1.33-.36-2.42-.36-3.51,.97,.12,.85-.73,.36-1.69,.12-.73,.97-1.09,.48-.97-1.33-3.03,.61-.12,.73-1.09-.24-1.45,1.09-.12,.61-.85,.24-.61-.61-.97-.12-.61-.24,.85-.97Zm13.68-14.53l.36,.48h1.09l1.09-.85,.97,.12,.48-.48h1.33l-.73,.48,.61,.24-.12,.85-.36,.85,.24,.12-.48,1.21-.48-.61h-.48l-.24,.24-.24-.12,.12-.36h.85l-.12-.36-.36-.24-.36,.24-.48,.12-.48,1.69-.48,.12,.36-1.57-.36-.61-.85-.12-.73,.61h-.48l-.12-.36,.48-.73v-.48l-.48-.12,.48-.36Z"/><path id="YAMAGUCHI" class="cls-1" d="M92.23,371.72l1.57-1.33,1.21,.61,.61,.97,.73,.61,.97-.73,.97-.12,.12-.73h.73l.36,.24,.61-.12-.73,.61h-.73l-.12,.48h-1.09l-.24,.97,.24,1.09-.61-.48h-.73v-.85l-1.21-.48-.36,.61h-1.21l-.24,.61-.24-.61-.73-.48,.12-.85Zm-2.54-16.58l-.12,2.78,1.33,.97,.73,3.15,1.21,.12c0,.24,0,.48,.12,.73,.36-.12,.61-.24,.97-.36l-.12,.97,.36,.97-.48,.61-.73,.61,.24,3.51-1.09,1.21-1.21,.36,.36,1.94s.36,1.21,.61,1.21-.97,.36-.97,.36c-.12-.36-.24-.73-.24-1.09l-1.45-1.45c.12,.12-.73,.48-.73,.48l-.97-.61-1.94-1.21-1.33-.97-.85-.61-.73,.61v.61l-1.21-.61,1.57-1.21-1.94-1.21-3.51,.48-1.21,1.94-1.57-.61-.12-.48-1.21-.36,.36,.73-1.21,.61s-1.21-1.69-1.33-1.82c-.36,.97-.73,1.82-.97,2.78l-1.94,1.21-1.69-.61-.73,.48-.48-.73,.24-.61-1.94-1.94s-1.33-.36-1.45-.36-1.45,2.18-1.45,2.18l-1.33,1.09-.48,.97-.85-1.09h.73l.12-3.51-1.21-1.33,.12-.97,1.57-1.57-.12-1.69-1.09-1.69,.61-2.18,.97,.36,2.42-.73-.48-.73s-1.21-.24-1.45-.36,.61-.97,.61-.97c0,0,1.21,.97,1.09,.85,.48-.24,1.09-.36,1.57-.36l1.33,.36,.73,1.21,1.45-.12,2.66-.36,.61-.85c.48-.12,.97-.12,1.45-.12,0,.12,1.45-2.42,1.45-2.42l-.12-.48c.12-.24,.12-.36,.24-.61,0-.12,.97-.12,.97-.12l1.45-1.69s-.12-.61-.12-.73,.48-.48,.48-.48l.73-.12v-.73l.73-.61,.48,.73,1.09-.85,.24,.73-.12,.73,.73,.48v1.33l-.36,.61v.85l-.85,.73,.73,.85v1.09l.48,.36,.85-.24,1.21,.24-.73,1.69,.36,1.33,1.09,.97,1.57-.12,.97-.97,1.09,.97,.12-.85,.73-.85h.36l-.48-1.82,.97-1.21,.97-.24,.48,.48Z"/><path id="HIROSHIMA" class="cls-1" d="M121.76,337.1v.97l-.36,.36-.12,2.54,1.94,2.42-.12,2.42,.97,2.06-.48,1.82,1.82,2.42-.12,2.66-.24,.61-.24,.61-.73-.61v.48l-.48,.24v1.09c-.24,.24-.61,.36-.97,.61l-.48-.48-1.21-.12-.61,.24-.12-.48,.48-.48-.12-.73-.48-.36-.36,.61-3.15,1.21-.85-.48-.24,1.57-1.09,.48-2.3-.12-.12,.48-1.94,.12v.48h-.73v-.36h-.97c-.12,.36-.24,.73-.36,1.09,0,.12-.85,0-.85,0v.61l.61,.12-.73,.61h-1.45v.61l-1.33,.61-1.09-.85-.73,.97h-.73l-.24-.85h.48l.24-.48-1.09-.36-.24-1.21-.36-.97-.73-1.09-.73,.24s-1.57-.48-1.69-.48-1.57,.61-1.57,.61v.85l-2.42,1.94v.73l.36,.61c-.36,.12-.61,.24-.97,.36,0-.24-.12-.48-.12-.73l-1.21-.12-.73-3.15-1.33-.97,.12-2.78-.36-.85-.12-.85-.48-.12,.48-.85,.73-.48,.48-.61,.48-.97-.24-.73,1.21-2.42-.73-.48,.73-.97,1.57-.48,.73-1.82,1.21,.73,.48-.61,.48,.24,1.21-.12v.48h.48l.73-.61-.12-.36,.48-.12,.48,.48,2.06,.12,1.94-1.33,1.45,.12,.12-.48,.61,.12v-.85l-1.57-.61,1.45-1.82h1.33l1.09-1.69,2.66-3.03,.73,.85h1.45l.48-.48,1.57,.97,.12-.48h1.82l.73,.36,2.18-.24,.61,.36,1.57,1.45Zm-12.23,26.02l.73,.61-.97,.61h-.73l-.12-.61,1.09-.61Zm-2.18,.48l-.48,.61-.12-.36-1.09-.36-.24-.48,.24-.24,.97,.36h.48l.24,.48Zm.24,.12l.24-.48,.24,.48v.24l-.48,.24v-.48Zm1.94-2.06l1.21-.85,.24,.48,.73-.97,.36,.12-.61,1.33v.85l-1.45,.12-.61-.24-.12-.61,.24-.24Zm5.69-.97l.48-1.09,1.21-.12,.36,.48-1.33,1.33-.48,.12-.24-.73Zm2.18-2.78h.61l.97,1.21-.48,.24,.24,.24-.48,.73-.73-.73-.61-.85,.48-.85Zm-16.95,6.54v-.85l.36-.61,.97,.36,.12,.48-.85,.24v.36h.73v1.09l.85-.36,.24,.61h-.48l-1.09,2.18-.24-.24,.48-1.09-.36-.61-1.57,.48-.61-.48,1.69-1.09-.24-.48Zm-1.82-.73l-.12-.73-.85-.85-.12-1.21,.97,.24,.73,1.09,.61,.24,.12-.61-.36-.61h-.36l-.12-.85,1.21-.12,.12,1.82v.73l-.48,.73,.48,.73v.36l-1.45,.48v-.61l.61-.73-.24-.61m-4.48-1.33l-.24-.61,.48-.48,.12-.48,.73-.36,.36-.36,.61,.61-1.57,1.69h-.48Z"/><path id="OKAYAMA" class="cls-1" d="M121.03,334.68l.12-.85,.73,.36,2.42-.73-.73-1.69,.36-.61,1.21,.61,1.94-.48-.48-1.57,1.57-.48,.85-3.03,2.06,.97,.61-.24,2.42,1.09,.73,1.33,.61-.12,.61-1.33,1.69-.36,.12-.85,1.94-.61-.24,1.33,2.54,.12,.97,1.09,1.09,3.03,2.18-1.33,1.33,.36,2.06-1.57,.12,.61-.61,.48,.12,.85,.73,.36,.12,1.21-1.21-.12-.48,1.94-.73,.12-.12,1.21-1.45,.61,.36,.97-.12,1.09-.73,.73,.73,1.21-.73,2.3,1.09,.36,.73,1.69-.12,1.09-.97-.12-1.09,.36-.36-.36h-.73v.85l.97,.36-.61,.61-1.09,.85,.12,.61-.73,.48-.97,.61-1.09,.12,.12-.24-1.45-.24-1.69,.36,.36,.36,1.69-.12,.48,.48-.36,.97-.61,.12-.12,.61-.61-.48-.36,.48-.12,.97-.36,.61-.48,.97-1.33-.61h-1.45v.73l-.97,.12-.97-2.18-.12,1.21-.85-.12-.12-1.94-.73,.61-1.94,1.33-2.54,.61-1.33-.12,.12-2.66-1.82-2.42,.48-1.82-.97-2.06,.12-2.42-1.94-2.42,.12-2.54,.36-.36v-.97l-1.33-1.69,.85-.61Z"/><path id="TOTTORI" class="cls-1" d="M120.19,319.79l-.24,.73c1.94,3.27,4.36,1.82,4.36,1.82l.85-1.09h.73l1.09-.61,1.94-.36c2.66,1.69,8.47,.61,8.47,.61l2.18-.61,.85,.36c6.17-.61,6.17-1.69,6.17-1.69l.73-.97,.97,.12,.97-.36,.73,1.33,.73,3.99,1.09,.48-.24,1.33,1.21,.85v2.42l-2.06,1.69-.97-.12-.12-.61-2.06,1.57-1.33-.36-2.18,1.33-1.09-3.03-.97-1.09-2.54-.12,.24-1.33-1.94,.61-.12,.85-1.69,.36-.61,1.33-.61,.12-.73-1.33-2.42-1.09-.61,.24-2.06-.97-.85,3.03-1.57,.48,.48,1.57-1.69,.48-1.21-.61-.36,.61,.73,1.69-2.42,.73-.73-.36-.12,.85-.61,.61-.61-.36-2.18,.24-.73-.36,.48-1.94,1.09-.61-.24-1.45-.73-.12,.61-.85,3.27-.97-.12-1.45-.24-1.45,.73-.61-.12-1.69h.36l-.12-.36-.48-.24-.61-.36-1.21-1.33-.48-.61-.36-.61,.48-.48h.61l.24,.12Z"/><path id="SHIMANE" class="cls-1" d="M115.1,334.8h0l-.12,.48-1.57-.97-.48,.48h-1.45l-.73-.85-2.66,3.03-1.09,1.69h-1.33l-1.45,1.82,1.57,.61v1.09l-.61-.12-.12,.48-1.45-.12-1.94,1.33-2.06-.12-.48-.48-.48,.12,.12,.36-.73,.61h-.48v-.48l-1.21,.12-.48-.24-.48,.61-1.21-.73-.73,1.82-1.57,.48-.73,.97,.73,.48-1.21,2.42,.24,.73-.48,.97-.48,.61-.73,.48-.48,.85,.48,.12,.12,.85-.97,.24-.97,1.21,.48,1.82h-.12l-.73,.85-.12,.85-1.09-.97-.97,.97-1.57,.12-1.09-.97-.36-1.33,.73-1.69-1.21-.24-.85,.24-.48-.36v-1.09l-.73-.85,.85-.73v-.85l.36-.61v-1.33l-.73-.48,.12-.73-.24-.73,1.69-.12s3.27-.36,3.03-2.42l1.94-1.09,.48-.97,.73-.48,.48-1.21,.48-.24,.85,.12,.36-1.33,1.09-1.21,3.15-2.42s1.69-.73,1.82-.73c.24-.48,.36-.85,.48-1.33l1.69-1.21,.12-1.33,4.36-3.03c1.94-.36,3.03-2.3,2.66-4.12v-.12c-.36-.12-.85-.24-1.21-.36v-.61l1.82-.48,1.57,.12,.12-.24-.85-.61,1.94-.24,1.45-.97,3.03-.12,.24-1.09,1.21,.36,.73-.73-.24-.48,1.21-.12s-.12-.73,0-.73c.36,.12,.61,.24,.85,.36l.48,1.09,1.57-.36,1.45-.24,1.69,.24v.36l-1.21,.12-.36,.24h-1.33l-.48,.48h-1.21l-.48,.73,.24,1.09-.61,.97,.85,.12,.73,.36,1.09-.48,1.82,.73v.24l.48-.12,.12,1.69-.73,.61,.24,1.45,.12,1.45-3.27,.97-.61,.85,.73,.12,.24,1.45-1.09,.61-.48,1.94-1.82-.36Zm-.36-12.1l-.85-.61h-1.69l-.85,.61-1.33,.12,.85,1.69,.36-.48,2.54-.61h.61l.24-.36,.12-.36Zm1.57-21.06l.85,.48-.12,.73-.36,.61-1.33,.97,.12-1.82,.85-.97Zm-3.63,2.06h-.61v-.97l.61-.97h.61s.36-.61,.48-.61h.73l.24,.24c.12-.12,.24-.24,.48-.48l.36,.12-.12,.85-.97,.12,.24,.48-.12,.73h-.85l-.12-.97-.48,.48,.12,.97,.12,.48-.73-.48Zm.97,.85h.97v.24l.73,.24-.12,.48-1.45-.12c0-.24-.12-.61-.12-.85h0Zm7.14-9.93l2.3,1.82-.12,2.54-.61,.24v.85l-1.45-.24-.73,.36-.73-.12,.12-.61-1.09-.73-.24-1.45,.24-1.21,.97-1.09c.12,0,1.33-.48,1.33-.36h0Z"/><path id="HYOGO" class="cls-4" d="M150.69,329.96l1.94-1.69v-2.42l-1.21-.85,.24-1.33-1.09-.48-.73-3.99-.73-1.33,3.39-1.69,2.78,.61,.97-.61h3.27l2.06,.36,.12,1.21-.48,.97,1.57,1.45,.36,.85,2.91-.61-.12,1.57,.24,2.3-1.21,.97-1.45-.97-.73,1.82,.36,1.69,3.51,2.06,.73-.61,1.45-.12,1.21,2.18-.12,.85,.73,.36,.48-.61,1.33,.24-.12,.85,2.54,.73,.36,1.21-.73,1.33-.73-.24-.36,.85,.73,.12-.24,1.45,2.91,1.45-.97,.24,.12,.73h.61l-.97,2.54,1.21,2.54-1.33,1.57-2.06-.85-.97,.48-.36,.61-.97-.36-.97,.36,.61,.97-.97-.61-.61,.85-3.03,.48-1.09-.61-1.21,.12-6.05-4.24-6.54,.24-.48-1.57-.36,1.57-.73,1.33h-2.54l.12-1.09-.73-1.69-.73-.85,.73-2.3-.73-1.21,.73-.73,.12-1.09-.36-.97,1.45-.61,.12-1.21,.73-.12,.48-1.94,1.21,.12-.12-1.21-.73-.36-.12-.85,.61-.48,.73,.24Zm6.17,31.35l-.24-1.33,.48-1.09,.73,.24,.73-.36,.24-1.57,1.09-1.33,.12-.73,.61-.73h.73l.36-1.33,.61-.73h.48l.48-.48h.36l1.45-2.06,.85,1.09-.85,.97-.12,.97-1.09,1.21-.85,1.09-.48,1.09v1.82l1.45,2.18v.48c-1.33,.61-2.66,1.33-3.87,2.18-.61,0-1.21,.24-1.69,.48l-.12-.61-.24-.24h-.48v-.24l.48-.61v-.48l-.36,.24-.85-.12Z"/><path id="KYOTO" class="cls-4" d="M175.38,334.44l-.36-1.21-2.54-.73,.12-.85-1.33-.24-.48,.61-.73-.36,.12-.85-1.21-2.18-1.45,.12-.73,.61-3.51-2.06-.36-1.69,.73-1.82,1.45,.97,1.21-.97-.24-2.3,.12-1.57-2.91,.61-.36-.85-1.57-1.45,.48-.97-.12-1.21,1.57,.24,1.09-.48,.48-.97h1.33l1.33-1.09v-.12l3.75-.97,1.57,1.33,.48,1.21-.12,.97h-.24v-.48l-.73,.36-.36,1.33-1.69,2.18,.12,.61,.48,.12v-.61l1.09-1.21v.73l.48,.24v.48h-.85v.48l1.82,.85,.12-.36h.36v.97l-.61,.73,.12,.61,.97-.97,.97,.12,.12-.97-1.09,.12-.36-1.45,2.06-.61,1.09-1.21-.12,.97,.61,.61-.85,1.09,.85,.61-.36,1.33,1.57,1.45v1.21l2.54,.36,2.06,.85,.48-.36,1.09,.12,1.33,1.09,.48,1.09,.73-.12-.85,1.94,.73,2.06-1.21,3.75,1.45,2.91-.12,1.69,.85,.61,.73-.12,2.66,2.06-.61,.48,.36,.36,.73,1.57-.48,.97-1.09-.12-.12-.97-1.57-.24-.85,1.45-1.94-.24-1.45-.48-.85-1.57,.48-1.09-1.82-2.91-.61-.97-1.09-.12,.12-1.33h-1.21l-.36,.97,.61,.12v.73l-.73,.12-1.57-1.09-.12-1.33-2.66-.85-.36-.97,.85-1.45Z"/><path id="OSAKA" class="cls-4" d="M177.08,345.7l-1.21-2.54,.97-2.54h-.73l-.12-.73,.97-.24-2.91-1.45,.24-1.45-.73-.12,.36-.85,.73,.24,.36,.97,2.66,.85,.12,1.33,1.57,1.09,.73-.12v-.73l-.61-.12,.36-.97h1.21l-.12,1.33,1.09,.12,.61,.97,1.82,2.91-.48,1.09-.61,.97-.12,.85-.61,.97-.61,2.78h.73l.12,.61-.73,.85,.12,.61,.61,.48,.12,2.42-.48,.73,.24,.36-.12,.48-.48,.61-1.33-.12-2.42,1.45-.36-.61-2.54,.73h-1.09l-1.69,.97-.12-.61-1.94,.48-.12,.61-2.42,.36-.24-1.09,1.09-.48,1.94-.73,2.54-2.42,3.03-3.39,.85-1.69-.12-1.45-1.45-1.45,.24-.48,1.09-1.82Z"/><path id="WAKAYAMA" class="cls-4" d="M190.51,379.59l.12,.73-1.33,.36,.36,.73-.36,.73,.73,.48-4.24,2.66-.97,.61-3.15-.73-3.15-.85-3.03-1.69-.61-2.3-.97,.12-.12-.48,1.21-.36,.36-1.21-5.08-3.03-1.09-1.94-.73-.48-1.57-.12,.24-1.21,.97-.97-.97-.12,.73-1.09,1.69-1.33-1.69-1.21,.24-1.33,.36-.61,1.33-.36v-1.21l-.73-.12-.61-1.69-1.57-.85,.73-1.45,.24,1.09,2.42-.36,.12-.61,1.94-.48,.12,.61,1.69-.97h1.09l2.54-.73,.36,.61,2.42-1.45,1.33,.12,.12,.73,.36,2.18,1.21,.61,.36,1.33-.48,.61-1.21-.48-3.27,4.6,1.45,1.21-.12,.85,.73,.24,.73,1.21-1.09,1.94,.73,1.21,1.33-.85,1.94,.36,1.21-.48,1.09,.48,.36,.61v2.06l.73,.24,1.21,1.57,1.09,.61,.97,.12-.85,1.57Z"/><path id="NARA" class="cls-4" d="M182.64,356.59l.12-.48-.24-.36,.48-.73-.12-2.42-.61-.48-.12-.61,.73-.85-.12-.61h-.73l.61-2.78,.61-.97,.12-.85,.61-.97,.85,1.57,1.45,.48,1.94,.24,.85-1.45,1.57,.24,.12,.97,1.09,.12,.48-.97,.73,1.94-.97,2.78,1.69,1.33,.85-.48,.73,.36,.12,1.09,1.09-.36,.12,1.09-.48,1.45-2.54,.61-.73,1.45,1.45,2.18-.97,.48,.97,1.82-1.21,1.69,.73,.61-.12,2.66-.12,2.06-1.82-.24-1.57,1.82h-1.21l-.48,.85-.24,1.21-.61-.36v1.69l-.48-.73-1.09-.48-1.21,.48-1.94-.36-1.33,.85-.73-1.21,1.09-1.94-.73-1.21-.73-.24,.12-.85-1.45-1.21,3.27-4.6,1.21,.48,.48-.61-.36-1.33-1.21-.61-.61-2.06-.12-.73,.73-.48Z"/><path id="SHIGA" class="cls-6" d="M186.03,324.88l.12-.73,1.45,.36,1.21-.97v-1.57l.73-1.21,1.09,.85,3.15-1.69,.12-1.09,1.45,.24,.12-.73-.85-2.42,.24-.85,.73-.24,.97,.48,1.69,.85,.24,1.21h.73v2.3l.73,.36,.61-.61,.73,1.21,.85,4.24-.48,.48-.36,2.3-.36,1.69,.73,.85-.12,1.21,1.21,.73-.48,1.69v1.45l-.48,.24-.12,2.06-1.33,2.66-2.66,1.45-2.18-.97-.97,.12-.73-.36-.73,.61,.97,.36-.97,.97,.12,.61-1.82,1.09-.36-.36,.61-.48-2.66-2.06-.73,.12-.85-.61,.12-1.69-1.45-2.91,1.21-3.75-.73-2.06,.85-1.94-.73,.12-.48-1.09-1.33-1.09,1.21-1.45Zm9.93,4.6l1.57-1.45c.73-.85,.97-3.39-.97-3.27l-.73-1.45,.24-.48v-1.33l-.85-.36-.24,1.69-.73-.12,.12-.73h-.48l-.12,.85h-.48l-.36-.48-.85,1.21,.24,.48-.24,.36v.73l.85,.85v1.21l-.48,.36-.73,.12v.73c-.73,.24-1.33,.85-1.45,1.57-1.94,1.09-.85,2.42-.85,2.42l-.12,1.21-1.09,1.45-.48,1.69,1.09,.85,.36-.61v-.97l.85-1.09v-1.69l.48,.12,.73-.73,1.69-.24,.24-1.21,1.33-.97,1.45-.73Z"/><path id="MIE" class="cls-4" d="M202.62,330.45l.48-.48,1.09,.12,.12-.73,.73,.12,.24,.97,1.82,2.3,.48,.12v-.61l.48,.48,.61,.73,1.69,1.45v1.45l-2.3,.85-.61,2.06,.36,.48-.36,.97c-.48,1.21-1.21,2.3-2.06,3.27,0,0-1.33,2.18-.97,3.39l.73,.48-.12,1.94,1.21,.36c.85,.12,1.69,.73,2.06,1.45,.48,.36,1.09,.61,1.69,.73l2.06,1.09,1.45,.73-.12,.85,.48,.24,.36-.36,.61,.24-.12,1.09-.36,.73h-.73l-.73,.73,1.21,.24c-.24,.24-.36,.48-.61,.61l.73,1.82-1.33,.85h-1.69l-.73-.48,1.94-.12-.12-.61-1.94-.12-.85-.36-.24,.48h-.48l.85-1.33-.61-.36-.24,.36-.61-.24-.48,.85,.73,.24-2.06,1.33,.12-.85-.85,.12-.12,1.21h-.36l-.24-.97-.73,.12,.36,.85-.85,.73-.48-.48-2.42,1.45-.61-.61-1.69,1.45-.24,.97,.97,.48-1.09,1.09-.48-.85-1.45,1.33c.48,.12,.85,.12,1.33,.24v.73l.85,.48-.48,.61,.12,.97-.61,.12-.12-.61-.85-.36-.36,1.09,.73,.12v.61l-.73,.12v.85l-.85,.12,.24-.61h-.73v.97l-.97,.36c-.85,1.21-1.57,2.54-1.94,3.87l-.48,1.21h-.73s-1.09-.61-1.09-.61l-1.21-1.57-.73-.24v-2.06l.12-1.57,.61,.36,.24-1.21,.48-.85h1.21l1.57-1.82,1.82,.24,.12-2.06,.12-2.66-.73-.61,1.21-1.69-.97-1.82,.97-.48-1.45-2.18,.73-1.45,2.54-.61,.48-1.45-.12-1.09-1.09,.36-.12-1.09-.73-.36-.85,.48-1.69-1.33,.97-2.78-.73-1.94-.73-1.57,1.82-1.09-.12-.61,.97-.97-.97-.36,.73-.61,.73,.36,.97-.12,2.18,.97,2.66-1.45,1.33-2.66,.12-2.06,.48-.24v-1.45l.48-1.69-1.21-.73,.12-1.21,.73,.24Z"/><path id="HUKUI" class="cls-5" d="M177.56,320.52h.48l-.12-.73h.73s-.12,1.45-.12,1.33c.24,.12,.36,.24,.61,.48,0,0,1.09-.24,1.21-.24,.36-.36,.73-.73,1.09-1.21l.97-.24,.12,.73h-.73l-.36,1.21h1.45l1.69-.61c0-.36,0-.73-.12-.97,.24-.24,.36-.48,.61-.73l.73,.73,.61-.36-.61-.73,.36-.12,.48,.24s.61-.85,.61-.97-1.33-1.09-1.33-1.09l.24-.36,1.82,.85h.61l1.57-.12,.24-.61-.36-.48v-.48l.24-.24v-.61l-.48-.24v-.61l1.57-1.33,.61,2.3c-.12,.12-.24,.24-.36,.48l.61,.73,.97-.61,.48-2.18c.12-2.06-2.66-4.24-2.66-4.24v-.97c.12-.61-.12-1.21-.61-1.57-.36-.24-.48-.85-.12-1.21,1.09-.24,1.82-3.63,1.82-3.63,.85-.61,1.45-1.33,1.69-2.3l.73-.73-.36-1.33h1.45l1.69-1.45,.61,.85,.97,.24,.73,.97,.36,1.94h1.57l.97,.97h.48l.61-.48,1.94,.12,2.3,2.06,.12,.61h.73l.48-.36,1.09-.12,.36,.48-.97,.73-.12,1.57,2.42,3.27,.24,.97-1.21,1.69-6.9,.97-.12,.73-3.27-.97-1.69,.61-.73,2.42-.36,1.09-1.69-.85-.97-.48-.73,.24-.24,.85,.85,2.42-.12,.73-1.45-.24-.12,1.09-3.15,1.57-1.09-.85-.73,1.21v1.57l-1.21,.97-1.45-.36-.12,.73-1.09,1.33-1.09-.12-.48,.36-2.06-.85-2.54-.36v-1.21l-1.57-1.45,.36-1.33-.85-.61,.85-1.09,.36,.61Z"/><path id="ISHIKAWA" class="cls-5" d="M214.96,269.32l1.33-.48,.73,.36,.61-.24v-.48l.24-.24,.36,.61-.24,.24,.24,.48-1.69,.48-.36,.48h-.73l-.48-1.21Zm8.72-6.54l-.85,1.21s-2.66-.48-3.51,.48l-.12,.73s-.97,.73-.73,1.33l-.85,.36-.24,.48-.36,.12-.48-.48-.85-.12-.24-.36,.61-.48-.48-.24-.97,.48,.12,.61-1.09,1.82,.36,.36v.85h-.61c-.12,.36-.12,.73-.24,1.09l.73,.24,.61-.24v-.48h.85s.85,2.78,1.82,0c0,0-.24-.73,1.09-.73v4.72l-1.57-.12-2.78,1.45-1.09,5.33-1.45,.97,.73,1.45-.73,2.06,.73,1.94-.73,4.24,.61,1.69-.61,.48,.24,.97-.12,.73,.73,1.09,.73,.12v.61l-1.69,2.78v.97l-.73,1.45-1.09,.12-.48,.36h-.73l-.12-.61-2.3-2.06-1.94-.12-.61,.48h-.48l-.97-.97h-1.57l-.36-1.94-.73-.97-.97-.24-.61-.85,.73-.61,.73-1.21,1.09-.24s10.53-10.41,11.01-17.67l-.36-.61,.48-.97v-1.33l-.48-.36-.73-1.82,.24-1.09-.12-1.21s-.48-1.21-.85,0c0,0-.48,.61-.48-.48,0,0-.36-1.69,.85-2.42v-.61s.85-.24,.48-2.18l.73-.97-.12-.61c1.09-.24,2.06-.73,2.91-1.33,.97,.48,2.18,.36,3.03-.36l1.45-.61s1.33-.73,1.45-1.33c.85-.48,1.69-.73,2.66-.73,0,0,2.3-1.21,3.27-.73l.73,.73s-.48,.48,.24,1.33c-.24,.36-.61,.61-.97,.73-.73-1.09-3.39,1.33-1.69,2.54l-.12,.97Z"/><path id="TOYAMA" class="cls-5" d="M232.63,292.44l1.33-1.82-.12-.85,1.33-2.78,1.09-.48,.12-5.33,.12-.48-.24-1.09-.48-.73v-1.45s-.36-.36-.48-.36-.12-1.69-.12-1.69l-1.21-.24-.73-.97h-.85l-.97,.48-2.18,.24-.36,.48s-1.57-.12-1.57,1.33v1.09l-.61,1.21-.12,.73-1.09,.73-.48,.73-2.3-.36c-1.21,.48-2.54,.36-3.75-.36l-1.57-1.33s-2.06-.97-.73-2.42l.61-.97-.12-.36,.48-.85-1.57-.12-2.78,1.45-1.09,5.33-1.45,.97,.73,1.45-.73,2.06,.73,1.94-.73,4.24,.61,1.69-.61,.48,.24,.97-.12,.73,1.09-.12,1.45-1.82,2.06,.97-.24,1.69,1.09-.36,1.69-3.03,3.03-2.42h3.39l5.81,2.06h1.33l1.09-.24Z"/><path id="GUFU" class="cls-6" d="M208.55,331.41l-.24,1.09-.48-.48v.61l-.48-.12-1.82-2.3-.36-.85-.73-.12-.12,.73-1.09-.12-.48,.48h-.97l-.73-.85,.36-1.69,.36-2.3,.48-.48-.85-4.24-.73-1.21-.61,.61-.73-.36v-2.3h-.73l-.24-1.21,.36-1.09,.73-2.42,1.69-.61,3.27,.97,.12-.73,6.9-.97,1.21-1.69-.24-.97-2.42-3.27,.12-1.57,.97-.73-.36-.48,.73-1.45v-.97l1.82-2.54v-.61l-.85-.12-.61-1.09,1.09-.12,1.45-1.82,2.06,.97-.24,1.69,1.09-.36,1.45-3.03,3.03-2.42h3.39l5.81,2.06h1.33v.73l1.57,.97-.24,1.57-1.69,2.54,.61,.73-1.09,2.42,1.45,1.21-3.75,5.69-1.09-.48-2.3,2.42v.97l2.3,1.09,2.66,3.87-.36,.97,.97,3.27,1.82-.48,.36,2.18-.85,.97-.97,3.99v.97h-1.09l-1.94,1.69h-.73l-1.94-1.33-1.33-.61-.85,.61-1.82,.48-.61-.73s-.85-.61-.73-.61l-1.09-.12-1.21-2.06-1.45-1.09v-.85l-.73,.12-.12,.73c-.24,.12-.61,.36-.85,.61,.12,0-2.18,.61-2.18,.61l-.97,.12-.36-.36-.73-.12-2.18,3.99v1.45l-.24,.36"/><path id="AICHI" class="cls-6" d="M208.55,331.29s.24-.36,.12-.36,0-1.45,0-1.45l2.18-3.99,.73,.12,.36,.36,.97-.12s2.3-.61,2.18-.61c.24-.24,.48-.36,.85-.61l.12-.73,.73-.12v.85l1.45,1.09,1.21,2.06,1.09,.12,.73,.61,.61,.73,1.82-.48,.85-.61,1.33,.61,1.94,1.33h.73l1.94-1.69h1.09l-.36,.97,.73,.97-.12,.73,1.82-.48,1.21-.73,1.94,.85,1.69-.24-.73,.97,.48,.48v.85l-.85,1.57-2.18,2.42v1.45l-1.09,.85-.85,2.06-.85,.24-.12,.85-1.69,.24-1.09,.97-.36,1.82,.61,1.82-.24,.61-.97,.24c-1.94,.12-7.87,2.54-7.87,2.54h-1.45l-1.69,.36c.12-.36,1.09-2.54,1.09-2.54h.61l.36,.73,.61,.12c.12-.12,.12-.24,.12-.48-.12-.12-.12-.24-.12-.36,0,0,1.09,.12,1.09,0s1.09-.85,1.09-.85l.12,.24,.36-.61,.85-.36-.12-.48,.61-.48,.24,.12v1.33l.36-.12v-.73h.73v-.36l-.73-.12,.12-.97,.24-.36c-.48-1.45-1.57-.85-1.57-.85l-.61-.12c-1.57-.36-1.45,1.33-1.45,1.33h-.36c-.12-.12-.12-.24-.24-.36l-2.66-.12c-1.21,.36-1.21-.12-1.21-.12-.73-1.82-1.33-1.33-1.33-1.33v-.85l.36-.48,.12-.61v-.73h-.24l-.24,.73-.48,.73c-.61,.97-.73,2.18-.24,3.27,1.69,1.33,1.21,1.94,1.21,1.94-1.69,.24-3.51-1.82-3.51-1.82,1.57-3.03-.36-4.36-.48-4.36s.12-2.54,.12-2.54c.48-.85,.85-1.69,1.09-2.66l.48-.48-.12-.48-1.33,.61-1.33,1.57-.85-.48v-1.45l-1.82-1.45-.61-.73,.73-1.33Z"/><path id="NAGANO" class="cls-5" d="M233.97,290.74l-.12-.85,1.33-2.78,1.09-.48,.12-5.33,.12-.48,.73-.48,2.18-2.54-.36-1.69,4.24,.61-.48,2.18,1.57,.97,.48-1.09,5.08-.73,.61-2.06,1.21-.12,1.09-2.42,3.39-.85,1.57,1.21,.48,3.03,2.42,1.21,.12,1.33-.73,1.21,.73,.48v.85l-1.82,.73-.97,.36-1.45,.24v.97l-1.33,.73-1.69,2.06-.36,2.3v2.18l2.42,.97,1.69-.48,1.94,.36,.48,3.39-1.45,.73,.85,2.18v1.09l-1.21,.48,1.33,1.09,.24,.73-.24,2.42,1.94,1.33,.12,.85,.61,.97-.24,.61-.97,.24-.36,.85-1.82,.12v-1.21l-2.54-.24-.61,.73-.97-.61,.24-.73-2.3-1.09-2.3,3.51-1.09-.61-1.45,3.03,1.21,1.09-1.33,1.33,.97,2.42-.36,.73-.24,1.57-.48-.24-.73,.85-.12,1.57,.48,.48-.12,.97-1.09,.36,.85,1.82-.24,.97-6.54,3.87v.73l-1.33,.36-1.69,.24-1.94-.85-1.21,.73-1.82,.48,.12-.73-.73-.97,.36-.97v-.97l.97-3.99,.85-.97-.36-2.18-1.82,.48-.97-3.27,.36-.97-2.66-3.87-2.3-1.09v-.97l2.3-2.42,1.09,.48,3.75-5.57-1.45-1.21,1.09-2.42-.61-.73,1.69-2.54,.24-1.57-1.57-.97v-1.21l.48-.48,1.33-1.82Zm10.17,13.07l.73,.85,.85-.61v-.36l-.48-.24-1.09,.36Z"/><path id="SIZUOKA" class="cls-6" d="M229.73,347.03l-.61-1.82,.36-1.82,1.09-.97,1.69-.24,.12-.85,.85-.24,.85-2.06,1.09-.85v-1.45l2.18-2.42,.85-1.57v-.85l-.48-.48,.73-.97,1.33-.36v-.73l6.54-3.87,.24-.97-.85-1.82s1.09-.24,1.09-.36,.12-.97,.12-.97l-.48-.48,.12-1.57,.73-.85,.48,.24,.24-1.57,.36-.73,.48,1.09,.48,2.3v1.94l-.36,.61,.36,.61v.97l-.61,1.21,.36,1.33,.97,.73,.85-.61,1.21,.73,.85,3.03s.97,.85,1.09,.85l1.33,.12,1.09-1.09-.48-3.51,.36-1.09v-2.06l1.45-.97,.85,1.33h1.57l.12,1.21,5.08-.73,.97-.61h2.18l.24,3.03-.73,.97-.12,1.45,1.21,1.45,.24,.85,2.06,.48-.48,.97-.61,1.94,.61,.24,.12,1.21-.36,.36,.61,.61,.97,.61v.85l-.24,1.57-1.45,.85c-.12,3.03-.12,1.09-.12,1.09l-.36,.97-.48,.73h-.36l-.73,.61-.48,1.33,.12,1.57h-.61l-.24-.61c-.24,.24-.48,.36-.73,.61l-.24,.73-1.94,1.69-1.94-1.21c.12-.24,.24-.48,.48-.73-.12-.24-.24-.48-.48-.73l-.73-.24v-1.09c0-.12,.85-.85,.85-.85-1.09-.97,0-.48,0-.48h-.24l-.12-.48-.24-.61,.12-.73s.36-.85,.36-.97-.48-.12-.48-.12l.12-.85c.24-.24,.48-.48,.73-.73l-.48-1.69,.48-2.06,2.66,.24,.24-.73-1.21-1.33-1.33-.85-2.66-.61-1.33,.73c-3.39-.12-2.54,1.69-2.54,1.69h-.36c-.73,.24-1.21,.97-.97,1.82,.12,.36,.24,.61,.61,.73-.48,.97-2.3,1.09-2.3,1.09l-1.45,.97-1.09,2.06,.36,.97-.97,1.45-.12,.61c-4.6,3.03-1.69,5.33-1.69,5.33-.61,.12-1.69-.48-1.69-.48-2.91-1.57-6.17-2.06-9.32-1.09-1.45-.73-6.29-.97-6.29-.97h-1.94l.24-.97Zm1.09-.97l.97,.97,1.09,.12,.12-.61,.24-.48,.24-.12v-.61l-.24-.12-.61,.61v.73h-.48l.12-1.09,.61-.61,.61-.61v-.36h-.48l-.24,.61-.12-.12h-.48l-.24,.48h-.36v-.12l.48-.24v-.61l-.36-.12-.24,.24v.61l-.85,.48,.24,.97Z"/><path id="NIIGATA" class="cls-5" d="M234.09,273.8s6.78-2.06,8.47-3.87l.85-.12,1.94-2.06s.97,.73,3.63,.12c0,0,4.72-3.87,4.84-4.36l.24-.48,2.78-1.33c.73-1.09,1.33-2.18,1.94-3.27v-.48l.48-.12,.85-1.21,1.21-.85c.97-1.45,1.57-3.15,1.94-4.84l.85-2.54s1.45-1.94,1.94-1.94l5.08-3.39,1.21-.24s4.24-.61,7.63-7.14l-.12-.48,.36-.85,.36-4.84c.12-.85,.61-1.69,1.09-2.3l.48-1.69,.85-1.21,1.21,.73,1.21,.48,1.94,.61-.12,3.27,1.09,1.09h1.57l2.06,2.3-1.09,1.69-1.94,1.21-1.94-.48-.73,.97,.12,3.51-.73,.61-.48,3.15-.36,.73,.73,1.45,1.33,.48,.73,.85-2.06,2.18-1.21,2.42-1.57,.97v1.57l.97,2.42-.48,.85-3.63-.48-.85,1.94-4.6,.36-.36,1.45,.73,.36v1.57l-1.69,3.39,.85,1.09,.61-.24,.97,1.45-.73,2.18,.61,1.69-.36,2.91-1.69-.61v-.97l-2.06-1.94-.36,1.33-.97,.97-1.94,.24,.24,2.91-.73-.36-.73,.61,.12,1.45-2.54,.61-.12,1.69-1.09,.61-1.57-.48-.12,.73h-.61v-.85l-.73-.48,.73-1.21-.12-1.33-2.42-1.21-.48-3.03-1.57-1.21-3.39,.85-1.09,2.42-1.21,.12-.61,2.06-5.08,.73-.48,1.09-1.57-.97,.48-2.18-3.99-.48,.36,1.69-2.18,2.54-.73,.48-.24-1.09-.48-.73v-1.45s-.36-.36-.48-.36-.12-1.69-.12-1.69l-1.21-.24-.73-.97,.85-.48Zm21.18-42.97l.97,.12-.24,.61-.12,1.94-.36,.48-.12,.97s-3.87,5.69,1.21,3.99c1.45-.73,.73,.73,.48,1.45l-.12,.61c-.73,.85-1.21,1.94-1.21,3.03l-.48,.12-1.09,1.09h-.36l-1.57,1.45-1.57,.36s-1.94,1.45-2.54,.12c.48-.73,.48-.36,1.45-.73,.36-.48,.61-.97,.73-1.57-.12-.12-.24-.36-.36-.48l.61-.85c.61-.12,.97-.61,1.09-1.09l-.97-1.09s-1.21-.24-1.21,1.21l-.73-.48,.24-3.39,1.57-2.18s1.82-2.78,3.39-3.27l.12-.85,.61-1.21,.61-.36Z"/><path id="YAMANASHI" class="cls-5" d="M247.4,314.47l1.33-1.33-1.21-1.09,1.45-3.03,1.09,.61,2.3-3.51,2.3,1.09-.24,.73,.97,.61,.61-.73,2.54,.24v1.21l1.82-.12,.36-.85,.97-.24,1.21,.48,.48,.97,1.21,.12,1.21,.85,1.21-.48,.48,.73,.97,2.54,1.09,1.33,1.57,.48,.73,.61v1.45l.12,1.33-.48,1.69-1.94,1.57-1.94,.61-.73,.97-.61,1.21-.97,.61-5.08,.73-.12-1.21h-1.57l-.85-1.33-1.45,.97v2.06l-.36,1.09,.48,3.51-1.09,1.09-1.33-.12-1.09-.85-.85-3.03-1.21-.73-.85,.61-.97-.73-.36-1.33,.61-1.21v-1.33l-.36-.61,.36-.61v-1.94l-.48-2.3-.48-1.09-.85-2.3Z"/><path id="KANAGAWA" class="cls-2" d="M272.94,316.16l1.21,.61,.61,1.45h2.54l1.45,.48,2.06,2.54,.36-2.54-.97-.85,.48-.48,.48,.48,.97-.97,2.42,.85,2.18,2.42,2.3,.48v.73l-1.33,.73-.73,.61-.36-.61-.24,.73c-1.82-.61-.61,1.09-.36,.73l-.24,1.09c-.97-.61-1.09,1.09-.48,.85l.12,1.21s-.73,.24-.61,.36,.73,.48,.73,.48l-.48,.24v.48l.85,.24,.48,.61,.97,.12,.36,.36-.97,1.45c-1.82,0-1.33,1.57-1.33,1.57l.61,.24c-.12,.12-.12,.24-.12,.48h-1.69v-.61l.36-.36v-.61l-.36-.12v-.48h.48v-.61l-.61-.12-.85-1.21v-.85l-.73-.61-.48,.36-.97-.12-1.45-.48c-5.57,.12-7.38,2.66-7.38,2.66v2.66l-.85,.24-2.06-.48-.24-.85-1.21-1.45,.12-1.45,.73-.97-.24-3.03h-2.18l.61-1.21,.73-.85,1.94-.61,1.94-1.57,.48-1.69-.24-1.21,.12-1.33,1.09-.24Z"/><path id="TOKYO" class="cls-2" d="M267.86,309.02l.61,.24,.73-.61,2.06,1.21h1.21l1.21,.73,2.54,.24,.85,1.21,1.94,1.21,3.75-1.21v1.09l1.21-.61,.73,.24,.73-.85,2.54,.36,.24-.85,2.18,.48,1.21,.48-.24,.73,.48,.48-.12,.48,.61,.85-.24,.61h-.61v1.09l-.36,.48-1.45,.73-.85,.85,.12,.73v1.09l-2.3-.48-2.18-2.42-2.42-.85-.97,.97-.48-.48-.48,.48,.97,.85-.36,2.54-2.06-2.54-1.45-.48h-2.54l-.61-1.45-1.21-.61-.97-.24-.73-.61-1.57-.48-1.09-1.33-.97-2.54-.48-.73,.85-1.09Z"/><path id="SAITAMA" class="cls-2" d="M261.56,308.17l.24-.61-.61-.97-.12-.85,1.21-1.57,1.45,.12,1.21-1.33,1.45-.61,3.03-1.09,.73-.85v-.85l1.94-2.91,4.96,1.33,.85-.73,2.54,2.3,3.51-.73,.61,.61,.85-.36,.48-.61,.61,.61,.24,.61-.24,.12v.61l.97,1.57,.12,.85,1.09,.12,.97,1.57v1.09l.48,1.09,1.09,1.33,.85,1.69-.36,.85,.12,1.94-1.21-.48-2.18-.48-.24,.85-2.54-.36-.73,.85-1.09-.48-1.21,.61v-1.09l-3.75,1.21-1.94-1.21-.85-1.21-2.54-.24-1.21-.73h-1.21l-2.06-1.21-.73,.61-.61-.24-.73,1.09-1.21,.48-1.21-.85-1.21-.12-.48-.97-1.33-.36Z"/><path id="GUNMA" class="cls-7" d="M277.66,278.03l1.45,.85-1.33,1.94,.48,1.09-1.21,2.91,1.57,1.21h2.06l.48,.85-1.45,2.18-.36,1.69-1.21,2.42,1.45,1.45v.61l1.69,1.33h3.99l.73,1.57-.48,.61-.85,.36-.61-.61-3.51,.73-2.66-2.18-.85,.73-4.96-1.33-1.94,2.91v.85l-.73,.85-3.03,1.09-1.45,.61-1.21,1.33-1.45-.12-1.21,1.57-1.94-1.33,.24-2.42-.24-.73-1.33-1.09,1.21-.48v-1.09l-.85-2.18,1.45-.73-.48-3.39-1.94-.36-1.69,.48-2.42-.97v-2.18l.61-2.3,1.45-2.18,1.33-.73v-.97l1.45-.24,.97-.36,1.82-.73h.61l.12-.73,1.57,.48,1.09-.61,.12-1.69,2.54-.61-.12-1.45,.73-.61,.73,.36-.24-2.91,1.94-.24,.97-.97,.36-1.33,2.06,1.94v.97l1.69,.61v.61l.97-.24,3.15,.85-1.33,2.06Z"/><path id="TOCHIGI" class="cls-7" d="M301.02,277.43l.12,1.21v2.54l.85,1.45-1.82,.73,.61,2.3,.12,3.15-1.21,2.3-.61,1.69-1.09-.61-.97,.61-.85-.36-.12,.97-2.42,.12-.24,.73-1.09,.61-.24,.97-1.09-.48-.73,.61-.48,1.94-2.18,1.21h-1.21l-.61-.61-.73-1.57h-3.99l-1.69-1.33v-.61l-1.45-1.45,1.21-2.42,.36-1.69,1.45-2.18-.48-.85h-2.06l-1.57-1.21,1.21-2.91-.48-1.09,1.33-1.94-1.45-.85,1.09-1.82,1.82-1.69,3.51-1.57,4.72-2.42,2.18-1.69h3.39l3.63,1.21,1.57,2.3,1.45,.48,.12,2.91,.12,1.33Z"/><path id="CHIBA" class="cls-2" d="M288.8,302.12l.85,1.33,.73,.73,1.21,1.69,1.21,1.33,2.18,1.09,3.03,1.21,.61,.85,1.21-.73,1.09,.24,.97-.61,1.09,.24,1.09-.97,1.94-.36,.61-.36,.73,.36,.73-1.45,1.21,1.09,1.82,2.06,1.33,.36,.61,.48,.36,1.33,2.3,1.69,.61-.12,.61,.36-.12,1.21-.73-.61-2.42,.61-.85-.36s-8.35,3.03-7.99,11.74l.36,.48-.36,2.18,.36,.12-.73,2.42-.61-.12-.73,1.33c-.12-.12-.36-.24-.48-.36l-.48,.48h-1.21l-.61,.73s-3.03-.97-3.51,1.57c0,0-3.27,.61-3.15,3.39,0,0,0,2.3-3.63,1.57,0,0,.36-1.21-1.82-1.69l2.06-.73h.61v-1.33l-.73-.36-.24-1.09,.85-.61-.61-.36-.12-.61s.85-.48-.12-1.33c0,0-.36-1.94,1.33-1.82,0,0-.12-2.66-2.06-3.03,0,0,1.21-.73,1.09-.73,0-.36,0-.85,.12-1.21,.36,.12,.85,.24,1.21,.36,.24-.24,.48-.36,.61-.61l-.48-1.33s3.75-1.57,4.12-3.63c0,0,1.82-.48,.48-2.18l-1.45-1.69-1.82-.36s-.73,.24-.61,.24,.36,.61,.36,.61l-.85,.61-.73-.48,.36-.48v-1.09h.61l.24-.61-.61-.85,.12-.48-.48-.48,.24-.73-.12-1.94,.36-.85-.85-1.69-1.09-1.33-.48-1.09v-1.09l-.97-1.57,.24-.61Z"/><path id="IBARAKI" class="cls-7" d="M315.18,278.88l-.73,.12c-.73,1.69-1.33,3.51-1.57,5.33,0,0-3.75,5.93-2.3,9.2l-.97,2.06-.61,.12s-.97,6.29,6.54,16.95l.73,1.09-.73,.12-2.18-1.57-.36-1.33-.61-.48-1.33-.36-1.82-2.06-1.21-1.09-.73,1.45-.73-.36-.61,.36-1.94,.36-1.09,.97-1.09-.24-1.09,.48-1.09-.24-1.21,.73-.61-.85-3.03-1.21-2.18-1.09-1.21-1.33-1.21-1.69-.73-.73-.85-1.33-.24,.73-.97-.24-.12-.85-.97-1.57v-.61l.24-.12-.24-.61h1.21l2.18-1.21,.48-1.94,.73-.61,1.09,.48,.24-.97,1.09-.61,.24-.73,2.42-.12,.12-.97,.85,.36,.97-.61,1.09,.61,.61-1.69,1.21-2.3-.12-3.15-.61-2.3,1.82-.73-.85-1.45v-2.54l-.12-1.21,.12-1.94,.97,.12,.73,1.21,1.21,.36v1.45l2.42,1.21,1.69-1.94,1.45-.36-.61-1.82,.61-.48,1.09,1.21,4.24,1.21,.24,1.33Zm-15.37,24.09l.36,.73,2.06,.73h.97l.73,.73-.48,.73,1.45-.12,.85,.24,.97,.85,.48-.12-.12-.48-2.06-3.51-.36-.36-.12-.73-.61-.97-1.45-.24,.61,1.09,1.09,.73,.12,.61-.48,.61-2.54-.12h-.48l-.24-.48-.73,.12Zm8.84,1.09l-.24,.24,.36,.24-.36,.48,.97,.61v.73l.97,1.33-.73-.12-.12,.24,.97,.97v-.97l.36-.73-.48-.48-.48-1.21-.73-2.18-.61-.48-.24-1.45-.61-.61,.36,.85,.24,1.57,.36,.97Z"/><path id="FUKUSHIMA" class="cls-8" d="M275.24,272.1l-.61-1.69,.73-2.18-.97-1.45-.61,.24-.85-1.09,1.69-3.39v-1.57l-.73-.36,.24-1.45,4.6-.36,.85-1.94,3.63,.48,.48-.85-.97-2.42v-1.57l1.57-.97,1.21-2.42,2.06-2.18,.97-.24,.85,.85,1.45-.48,1.82,.12,.73,.36,.61,1.45,1.69-.61,1.82,1.45,.97-.85,1.69,.36,1.69-1.94-.73-.85,.24-4.36,1.82,.73,1.57-.85,1.69,.97,.24,1.57,3.03-.36,2.42,.85v2.42l1.94,.61,2.42-.36,.12-3.03,1.82,.12,.73,1.82,.61,.12,.12,1.57,.48,1.21s1.45,12.23,0,15.86c-.24,1.45-.36,2.91-.24,4.36-.61,1.09-.85,2.3-.48,3.51-.36,.85-.85,1.45-1.57,2.06,0,0-2.3,.24-3.03,1.33l-.24,.48-.12,.61-4.24-1.21-1.09-1.21-.61,.48,.61,1.82-1.45,.36-1.69,1.94-2.42-1.21v-1.45l-1.21-.36-.73-1.21-.97-.12-.12-2.91-1.45-.48-1.57-2.3-3.63-1.21h-3.39l-2.18,1.69-4.72,2.42-3.51,1.57-1.82,1.69-3.15-.85-.97,.24v-.61l.85-2.78Zm22.27-15.49s-1.94-.12-2.54,.73l1.33,2.42,1.45,.36,.85-1.09v-1.33l-1.09-.36v-.73Z"/><path id="MIYAGI" class="cls-8" d="M337.7,214l-1.21-.97,.36,1.45s-.24,.36-.48,.24c-.36-.48-.61-1.09-.97-1.69-.24,.61-.24,1.33,.12,1.94l-.61,.48c-2.78,.97-.24,2.42-.24,2.42v.85h-.73c-.48,1.21-2.18,1.21-2.18,1.21v.85s2.06,.36,2.06,.24,0,.73,0,.73l-1.69,1.33,.73,1.21,.85-.36c.61,.24,.24,1.94,.24,1.94l-.61-.85-.61,.24c.61,.24-.12,1.45-.12,1.45l1.21,.12v.48l-1.69,.12,.36,1.33,.85-.48s1.82,.61,.73,.73c-1.09,.12-1.21,.73-1.21,.73,.73,.24,1.21,.97,1.33,1.69l-.36,1.21-1.33-.97-.24-.97-1.21-.24,.73-.73-.85-.73-1.21,.24v-.73c-3.75-.48-5.08,1.45-5.08,1.45l-.24,1.21-.48-1.09c-.48-1.69-1.94,.12-1.94,.12-1.33,2.18,.36,.97,.36,.97l.36,.97-.85,.48c-4.48,4.36-3.27,11.86-3.27,11.86l.12,.73-1.82-.12-.12,3.03-2.42,.36-1.94-.61v-2.42l-2.42-.85h-3.15s-.24-1.45-.24-1.45l-1.69-.97-1.57,.85-1.82-.73,.12-2.78,3.51-.73,1.57-3.15-.12-2.91,1.33-2.42,2.42-3.51-1.69-2.66,.73-.97-1.09-2.66,1.45,.48,.61-2.18,.85-2.18-1.21-.24-.24-1.45-1.09-.97-.12-.73,1.21-.24,1.69-.12,1.57-1.21,.48-.97h.85l1.69-.12,1.33,1.21,1.69,.61,.97,1.09h3.99v.85l-.85,.73,2.54,2.54,2.54-2.3,2.91,1.21,1.69-3.87-.12-3.15,2.66,.24,1.09,.48,1.21,3.75Z"/><path id="YAMAGATA" class="cls-8" d="M282.62,223.57l1.69-3.27,.24-.85h.61c.24-.61,.73-.97,1.33-1.09,0,0,.12-1.09,.97-1.21,1.09-1.69,1.82-3.75,2.06-5.81l.12-.73,.61-.48,.97-3.75-.24-.73,3.03,.24,1.82-.85,.12,1.33,2.42,1.21,4.12,1.09,1.21-.24,.61,.97,1.57,.24,.48,1.94,1.33,1.09h.85l.12,.73,.12,.73,1.09,.97,.24,1.45,1.21,.24-.85,2.18-.61,2.18-1.45-.48,1.09,2.66-.73,.97,1.69,2.66-2.42,3.51-1.33,2.42,.12,2.91-1.57,3.15-3.51,.73-.12,2.78-.24,4.36,.73,.85-1.69,1.94-1.69-.36-.97,.85-1.82-1.45-1.69,.61-.61-1.45-.73-.36-1.82-.36-1.45,.48-.85-.85-.97,.24-.73-.85-1.33-.48-.73-1.45,.36-.73,.48-3.15,.73-.61-.36-3.51,.73-1.33,1.94,.48,1.94-1.21,1.09-1.69-2.06-2.3h-1.69l-1.09-1.09,.12-3.27-1.94-.61-1.21-.48-1.21-.73-.24-.36Z"/><path id="IWATE" class="cls-8" d="M345.57,198.75v.73l-2.3,.24,.97,.61-.12,.61c-.24-.12-.61-.12-.85-.12l.12,.73,1.45,.12v.85s-2.18,.61-2.18,.73v.48l1.21,.12s-.85,.85-.73,.85c-.36,.12-.73,.12-1.09,.12l1.57,1.21-.73,.73s-1.69-.85-1.57-.85c.12,.36,.12,.85,.12,1.21l1.33,.36-1.57,.36,.97,.85h-2.54c-.12-.36-.24-.61-.36-.97l-.97,.97,.97,1.09-.85,.48,.48,.73-.61,.48-.85-1.94-1.09-.12v1.09l-1.09-.48-2.66-.24,.12,3.15-1.69,3.87-2.91-1.21-2.54,2.3-2.54-2.54,.85-.73v-.85h-3.99l-.97-1.09-1.69-.61-1.33-1.21-1.69,.12-.12-1.33,.85-2.42-1.21-.12v-1.94l1.09-1.33-.61-.36v-1.21l-1.45-1.94-1.33-3.27,1.94-5.2,1.57-1.69,.48-2.3-.97-1.45,1.69-2.18-1.45-.85,.12-1.94,2.3,.36-.73-2.54v-3.87l.73-.73-.48-2.54,2.06-1.69,.12-.61,.61,.73,.97,.36,2.54-1.45-.12-.61,2.91-1.21,2.66-1.82,1.09,1.21,2.3-1.45,2.18,.97,1.33-.97,.12-.97,1.69-.61,.73-.73,.97,1.21s2.78,4.84,2.91,6.05c0,0-2.18,1.45,.36,1.45l.85,1.21s-2.91,1.09-.24,2.91l.97,1.21,.85,.12,.61,2.18s-1.69-.12,.24,2.18c.48,3.03,.36,6.17-.48,9.2l1.82-1.94,.24,2.42s1.82,.73,0,1.45c-.24,.48-.48,.97-.73,1.45-2.3-.24-1.21,2.66,.24,.61,0,0,1.21-1.21,1.09,.12-.48,.36-.61,.85-.61,1.45h-1.33l-.97,1.21,.73,.12-.48,.73c-.61-.48-2.54,1.09,.12,.48l.61-.36Z"/><path id="AKITA" class="cls-8" d="M294.12,174.54c-.48,.73-.97,1.45-1.45,2.18l-.24,2.3,.97,1.21s1.57,.36,2.06,1.09c0,0,.36-1.33,.36-1.69l.48-.61v-3.15l-2.18-1.33Zm0,.12l1.69,1.21v2.78s-.85,.97-1.45,.97c-.48-.12-.97-.24-1.45-.48,0,0-.48,.12-.12-1.09l.12-1.33,1.21-2.06Zm14.28,38.01h-.85l-1.33-1.09-.48-1.94-1.57-.24-.61-.97-1.21,.24-4.12-1.09-2.42-1.21-.12-1.33-1.82,.85-3.03-.24,.48-.85,.61-1.09v-.61l-.36-.12v-.61l.48-.48v-1.33l.24-.36,.97-.12c3.15-5.45,2.54-13.07,2.54-13.07l-.12-1.33-.36-2.06c-1.94-3.87-4.6-2.91-4.6-2.91,0,0-.12,.97-.12,1.09s-1.09,.12-1.09,.12l-1.82-.12-.24-1.33-.48,.12-.36-1.21,.48-.36-.48-.12-.12-1.69,.73,.85,1.69,.73,1.21-.24c4.24-3.87,3.87-7.5,3.87-7.5,1.09-2.06,.85-2.78,.85-2.78,.61-3.39-.97-3.15-.97-3.15l-.97-1.57,1.82,.24,.24-1.09,1.69-.36,.48,.97,6.05-.12,.48-1.21h2.18l2.91,1.69,2.3,.24,4.24-.97,.36-1.21,.85-.61,.85-.12v.48l-1.09,.24v.73l.24,.24,.12,.97,.48,.48,.48-.36,2.54-.12,.24,2.42-.73,.12-.73,3.39-.12,.73-2.06,1.69,.48,2.54-.73,.73v3.87l.73,2.54-2.3-.36-.12,1.94,1.45,.85-1.69,2.18,.97,1.45-.48,2.3-1.57,1.69-1.94,5.2,1.33,3.27,1.57,1.94v1.21l.61,.36-1.09,1.33v1.94l1.21,.12-.85,2.42,.12,1.33h-.85l-.48,.97-1.57,1.21-1.69,.12"/><path id="AOMORI" class="cls-8" d="M293.03,161.83c-.12-.97-.36-2.06-.73-3.03h-1.33v-.97c1.45-.97,2.66-2.3,3.51-3.99l1.57-.85,1.21,.73s1.82-.24,2.18-1.45c0,0,1.09,1.21,2.18-1.69,0,0,1.33-5.08,1.09-7.99l-.73-.85h-.97v-.73l1.21,.24c.85-.85,1.21-2.06,.73-3.15l.36-.85,1.33,.73s1.82,3.51,3.63,.24c1.21-.12,2.3,.48,2.78,1.57,0,0-.48,5.69,.85,9.2,0,0,1.94,4.72,4.84-.61l-.36-1.21,.73-2.06,2.66,1.69v.73l.73,.24,1.21,.48s1.82,4.6,4.48-2.3l.48-3.87,.61-.85c.24-1.82-.61-3.51-2.06-4.48,0,0-1.09-.48-1.33,1.21l-.61,.73-1.57,.97-.73,.12s-.73-1.33-1.94,.12c0,0-1.21,0-1.45,.48-.85-.12-1.57,.36-1.94,.97,0,0-1.21,.73-1.33-1.57l.36-.97s1.21-5.81,1.45-6.29l1.82-2.91-.36-.73,.48-.85c.85,1.33,2.42,2.06,3.99,1.94l1.21,.73s4.6,6.9,8.96,.97l-.12,1.69s-2.42,6.29-1.69,8.96c0,0-.73,11.98,2.78,17.43,.24,.61,.97,.97,1.57,.73,.12,0,.24-.12,.36-.24l2.78,2.91-.73,.73-1.69,.61-.12,.97-1.33,.97-2.18-.97-2.3,1.45-1.09-1.21-2.66,1.82-2.91,1.21,.12,.61-2.54,1.45-.97-.36-.61-.85,.48-3.15,.73-.12-.24-2.42-2.54,.12-.12-.48,.12-.24,.36,.61,.36-.12-.24-.61,.12-.24,.61,.48,.24-.73-.73-.85-.97,.12v-.48l-.85,.12-.85,.61-.36,1.21-4.24,.97-2.3-.24-2.91-1.82h-1.94l-.48,1.21-6.05,.12-.48-.97-1.69,.36-.24,1.09-1.82-.24,.12-2.06Z"/><path id="HOPPOURYOUDO" class="cls-8" d="M446.27,67.06l1.82,.12,.12,.85h-1.57l-.36-.97Zm10.29-5.45l.85-.73,.97,.36,.12,.73-1.94-.36Zm-6.42,6.66l.85-.85,1.09-.12,.12,.36-.48,.61h-.85l-.12,.36-.61-.36Zm-15.37-9.68l-.36-1.33-.36-2.42,1.09-.73,.73-1.45,6.54-4.6s1.09,0,.61-2.18c-.12,.12,4.24-4.96,4.24-4.96l1.94-1.69,.61-2.3c.97-.61,1.57-1.69,1.69-2.91,.12,.24,1.45-2.06,3.51-.12-.12,.12,3.27,3.99,9.44,.97-.48,1.21-1.21,2.3-2.18,3.15,0,.12-1.45-1.57-3.27,.97-1.21,1.57-3.15,2.42-5.08,1.94,.12,.12-3.51,.36-3.03,2.66,.12,.12-3.99,.85-4.72,3.87l.36,1.21-1.21-.36-1.21,2.3s.73,1.33-3.03,1.69c-.73,.61-1.45,1.09-2.18,1.69,0,0-.24,5.33-1.09,6.54,.12,.24-.36-.36-.36-.36l.12-1.94-2.78,.36Zm29.9-3.03l3.51-.85-.24-.61,3.03-1.09,2.3,1.45-.36,.85-6.54,3.39-1.33-1.21-.36-1.94Zm9.2-26.15c.36,2.66,3.51,1.69,1.45-.97,.12,.24,1.45-.12,1.45-.12l.73,.85c1.69-.48,2.78-1.94,2.78-3.63-2.54-.36-4.24-3.75,.12-1.33-.12,.24,1.94-.36,1.69-2.66,2.06-.36,3.87-1.45,4.96-3.15,.12,0,1.21-.36,1.21-.36l.61-3.75h1.09s.61,1.45,3.27,.24c-.12,0-.61-3.75,3.75-3.75,.12,.36,.85-.12,.73-1.82,.12,.12-.61-3.03-.61-3.03l1.82-2.18,.97,.61,1.82,4.48c2.54,.85,5.2,.73,7.63-.36,.12,.12,3.63-2.66,3.99-3.99,0,.12,4.84-3.75,4.84-3.75,0,0,4.12-1.82,5.81,.73,0,.36-.12,.61-.24,.97,0,0-3.03,1.57-.24,2.42-.24,.85-.61,1.57-.97,2.3l-1.69,.12s-3.27-1.33-7.02,1.94c-.73,.48-1.57,.85-2.42,1.21,0,0-2.78,0-3.87,1.33-2.78,1.45-5.2,3.39-7.14,5.69,0,.24-4.96,3.27-6.66,.97,.73-1.94-4.96,.36-2.06,1.57-.36,1.45-1.21,2.78-2.42,3.75,.12,.12-2.06,.97-2.06,.97-2.3,1.33-4.24,3.27-5.45,5.69-.85,1.33-2.54,1.82-3.99,1.21-.12,.12-3.03,2.18-3.27,4.36,.12,.12-.61,.24-.61,.24,0,0-3.99,0-1.82-2.91,.36,0,.61-.12,.97-.36,0,0,1.57-.36,.48-1.94,.24,0,.61-1.45,.36-1.57Zm-20.82,34.5s-2.06,.73-1.94,.85,1.57,1.94,1.57,1.94l1.69-.97,.24-1.33-1.57-.48Z"/><path id="HOKKAIDO" class="cls-8" d="M429.69,64.03c.48,1.57,.48,3.99,1.69,5.45,.97,1.82,2.78,3.15,4.84,3.51,.12,0,4.36-4.12,4.36-4.12,1.21,.48,2.66,.61,3.99,.24,.12,0,0,1.94-4.72,2.06,0,.24-.85,1.09-.85,1.09l-.73,.12s-.73,2.66-.97,3.39c-2.18-.12-3.39-.73-8.47,1.33,.12,0-2.06-1.57-2.91,2.78,.48-.12-1.45,.73-1.45,.73-.12,.48-.36,.97-.85,1.21-1.45,.61-4.12,.61-4.12-1.94-1.33-.36-2.66,.48-2.91,1.82,0,.12,0,.24-.12,.36,.48,.48,.97,.97,1.57,1.33,0,.36-7.02-.48-7.02-.48,.12,.48-1.82,.61-4.36-1.45-8.59,.12-14.28,6.78-18.28,10.53-3.99,3.75-7.99,10.05-8.59,13.44,0,.12,.85,1.57,.85,1.57l-.73,4.36c-.97,1.09-1.57,2.54-1.69,4.12,0,.12-2.18-1.69-2.18-1.69-.24-.36-.48-.73-.61-1.09,0-.12-5.08-3.39-5.2-3.39-1.82,0-3.63-.73-5.08-1.94-.61-.24-1.21-.48-1.82-.73l-4.84-2.06-1.33-1.21h-.73s-4.24-2.42-5.45-4.48c-.85-.73-3.15-.61-4.12-1.21s-3.75-4.84-11.74-4.36c-5.69,1.94-7.38,3.87-9.56,5.45-2.06,.85-3.87,2.42-4.96,4.36,0,.97-1.21,.12-1.21,.12-.36-.24-.61-.61-.85-.85-.12-.36-.24-.61-.61-.85,0,0-.61-3.63-1.69-3.39-.48-.36-.97-.73-1.57-1.09,0,0-.48-3.99-5.2-1.94,0,.12-1.57-1.21-3.03-.73-3.15,2.66-4.84,6.66-4.72,10.77,.24,.73,1.33,.85,2.78,.48,1.33,1.45,2.91,2.78,4.36,4.12,0,0,4.24-.97,4.24-.85s.73,.61,.73,.61c.48,.36,.85,.85,1.33,1.33,.24,1.33,1.09,2.3,2.3,2.78-.24,.12,2.54,3.99,4.36,3.15-.12,.24,2.06,1.21,2.18,1.21s.36,.73,.24,.73,.61,.85,.73,.85c-.73,.36-1.45,.48-2.18,.48,.12,.24-.36,2.06-3.39,2.3,.12,.24-2.42-1.82-3.39-1.57-.36,.12-1.82-.48-2.06-.36s-1.69,1.45-1.45,1.21c1.45-2.66-2.3-4.12-2.42-.73-.48,.73-1.21,1.21-1.94,1.69,0,0-3.27-.12-2.78,2.54v3.15l-1.21,.61c-2.06,.36-3.87,1.82-4.72,3.75,.12,0-1.69-1.57-3.03-.73,.48,.36-5.57-3.75-.48-11.01,.12-.48,.24-.85,.24-1.33h.73c1.57-3.39,.61-7.5-2.3-9.8-.85-.12-1.82-.48-2.66-.73l-1.33-2.54-1.33-.36s-1.09-.73-.97-.73c.12-.48,.12-.85,.12-1.33l-.36-.85,.48-.97c-.12-.24,2.66,0,1.09-8.35,.24,.36-.12-2.54,4.6-2.54,1.57,0,1.45-.24,1.94-1.21,.61-.24,1.21-.61,1.69-.97l1.21-2.06,1.21,.97c-.24,1.33,2.42,1.09,1.82-.73,0,0,1.82-2.06,1.82-2.18s.24-.85,.24-.85c0,0,.97-.85,3.51-2.42-.24,0,.24-.97,.24-.97l-2.91-4.12s-3.39-1.69-1.82-3.87c0-.61,.12-1.33,.36-1.94,.73,.12,1.45,0,2.06-.24,.85-.36,.61-1.33,1.57-1.45,0,0,2.06,2.66,3.15,2.78,0,0,2.06,2.18,3.99,2.18,.12,.12,0,2.18,2.06,.48,.48,.61,2.66-.85,4.24-.73,0,.12-.61,1.21,.48,1.57,0,.12,3.15,1.33,3.15,1.33,0,0,6.29-1.82,7.14-8.11,.12,.36-1.94-3.87-1.94-3.87,.73-.97,.73-2.3,.12-3.27-.12-.48-.24-.85-.48-1.33,0,0-1.57-4.36,4.36-5.81,0,0,3.27-.48,3.87-6.05,.36,.36-.48-8.84-.48-8.84,0,0,3.87-4.12,3.03-7.75,.24,.48,2.42-6.78-5.33-20.34,.36-.12,0-1.45,0-1.45,0,0,1.33-.24,1.21-2.66,0,.48,1.33-1.69,1.33-1.69l-.48-.61-.36-1.09,.48-.73s.97,1.69,2.54,1.21c0,.12,3.15,.85,3.51-3.27,.48-.12,1.09-.24,1.69-.36l1.09,1.57,1.57,1.82,3.63,2.42s5.81,7.26,8.11,9.08,1.33,5.33,8.35,11.5c7.02,6.17,9.56,8.23,13.8,10.29,.24,.12,.48,4.36,22.15,8.35,.12,.24,1.21,.12,1.21,.12,.12,1.94,0,2.66,1.21,3.87,0,0,4.12,3.03,12.23,1.94,1.33-.85,9.56-8.23,10.05-8.35,0,.12,1.57-1.21,1.57-2.18,1.21-.73,2.18-1.69,2.66-3.03,.48,.24,1.09,2.54,.97,2.54-.36,1.82-1.45,3.39-2.91,4.48-.12,.73-.24,1.45-.48,2.06,0,.12-3.27,3.27-3.75,5.93v.97l-.85,1.57c.36,1.69,1.21,3.27,2.18,4.6-.12,.12,1.33,.97,1.33,.97,1.33,.24,2.54,.61,3.75,1.09,0,0,.73,.73,0,1.21l-1.33-.12,.73-.48v-.61l-1.82-.12,.36-.36-1.57-.48-.12,.61,.61,.36c.12,.24,0-.12,.48,1.45Zm-32.56-18.4l-8.23-2.42s2.91,4.36,4.48,2.78c.12,.36,2.66,.85,2.66,.85l1.09-1.21Zm-68.15,42.12l-.97,1.21c-.36-.12-.73-.24-1.09-.24,0,.12,.12,1.94,.12,1.94l.61,.24,1.21-1.21,1.57,.12c1.09-.36-.73-2.42-1.45-2.06Zm-12.59,5.2s-1.57,.97-1.45,1.69c.36,.73,1.09,1.09,1.94,.97s1.45-.85,1.57-1.69c-1.33-1.21-2.06-.97-2.06-.97Zm.12,1.09s.36-.12,.36,.36,0,.24-.36,.36-.36,0-.36-.48,.36-.24,.36-.24h0Zm8.96-84.73l1.94,.73s1.69,1.69,1.33,2.78c-.36,1.09-2.66,1.21-2.66,1.33-1.09-.48-1.94-1.33-2.42-2.42-.36-1.45,1.82-2.3,1.82-2.42h0Zm-3.75-5.81V7.63l-.48,1.21-.48-.36,.12-1.09c-.61-.97-.85-2.18-.85-3.39,.48,0,1.09-.24,1.69-.48h0Z"/><path id="TOKYO_ISLANDS_" class="cls-2" d="M287.83,396.29s.73-.12,.73,0,1.33,1.21,1.33,1.21h.61c.12,.48,.12,.85,.12,1.33l-.73,.73-1.21-.48v-.97h-.48l-.48-.85,.12-.97Zm-6.29-30.74c.24-.12,.61-.12,.85-.12,.24,.12,.48,.36,.73,.61v1.21s-.73,.61-.85,.61l-.97,.12-.36-.97c0-.12,.61-1.45,.61-1.45h0Zm-5.57-10.05l.12,.73c-.12,.24-.24,.48-.36,.61l-.12,1.94-.73-.61,.12-.85c.12-.24,.24-.61,.24-.85l.73-.97h0Zm1.69-11.74l1.45,.36,.97,.97v2.42h-1.33l-.97-1.09s0-2.66-.12-2.66h0Z"/></g></g></svg>